<svg width="23" height="22" viewBox="0 0 23 22" fill="none" xmlns="http://www.w3.org/2000/svg">
<path d="M20.4133 -0.000976562H3.12579C2.50087 -0.000976563 1.90155 0.247316 1.45966 0.68928C1.01778 1.13124 0.769531 1.73068 0.769531 2.35571L0.769531 19.6414C0.769531 20.2664 1.01778 20.8658 1.45966 21.3078C1.90155 21.7497 2.50087 21.998 3.12579 21.998H9.86488V14.5192H6.77124V10.9985H9.86488V8.31604C9.86488 5.26429 11.6812 3.577 14.4639 3.577C15.3769 3.58979 16.2879 3.66931 17.1893 3.81494V6.81139H15.6544C15.3928 6.77675 15.1268 6.80137 14.876 6.88343C14.6252 6.9655 14.3961 7.1029 14.2056 7.28548C14.0151 7.46806 13.8681 7.69114 13.7754 7.93823C13.6827 8.18531 13.6468 8.45008 13.6702 8.71293V10.9985H17.0472L16.5072 14.5192H13.6702V21.999H20.4133C20.7227 21.999 21.0291 21.9381 21.315 21.8196C21.6008 21.7012 21.8606 21.5276 22.0794 21.3088C22.2982 21.0899 22.4718 20.8301 22.5902 20.5442C22.7086 20.2583 22.7695 19.9518 22.7695 19.6423V2.35571C22.7695 1.73068 22.5213 1.13124 22.0794 0.68928C21.6375 0.247316 21.0382 -0.000976562 20.4133 -0.000976562Z" fill="#2518DA"/>
</svg>
