<svg width="23" height="22" viewBox="0 0 23 22" fill="none" xmlns="http://www.w3.org/2000/svg">
<path d="M8.12946 17.7137C8.12946 17.805 8.02831 17.8776 7.89885 17.8776C7.75219 17.891 7.65003 17.8184 7.65003 17.7137C7.65003 17.6089 7.75117 17.5498 7.88064 17.5498C8.0101 17.5498 8.12946 17.6089 8.12946 17.7137ZM6.74985 17.5062C6.71849 17.5975 6.8075 17.7023 6.94101 17.7292C6.98947 17.7535 7.04521 17.7575 7.09652 17.7405C7.14782 17.7235 7.19069 17.6867 7.21612 17.638C7.24242 17.5467 7.15847 17.4419 7.02496 17.4015C6.97407 17.3831 6.91848 17.3839 6.86809 17.4036C6.8177 17.4234 6.77579 17.4608 6.74985 17.5093V17.5062ZM8.71002 17.4284C8.58157 17.4606 8.49256 17.5467 8.50774 17.6514C8.52291 17.7562 8.63619 17.8018 8.7697 17.7697C8.90321 17.7375 8.98716 17.6514 8.97199 17.5622C8.95682 17.473 8.83949 17.4181 8.71104 17.4316L8.71002 17.4284ZM11.6291 0.0022873C10.1979 -0.0285126 8.77548 0.237231 7.4469 0.783598C6.11833 1.32997 4.91096 2.14571 3.89714 3.18198C2.88331 4.21824 2.08389 5.45369 1.54676 6.81432C1.00963 8.17495 0.74584 9.63277 0.771201 11.1004C0.753319 13.4934 1.46964 15.8316 2.81882 17.7842C4.168 19.7367 6.08173 21.2048 8.28926 21.9808C8.85668 22.0845 9.05695 21.7256 9.05695 21.43C9.05695 21.1344 9.0438 19.5921 9.0438 18.6368C9.0438 18.6368 5.93867 19.3193 5.2873 17.2812C5.2873 17.2812 4.78158 15.9577 4.05435 15.6164C4.05435 15.6164 3.0429 14.9018 4.12515 14.9163C4.47888 14.9651 4.81706 15.0961 5.11385 15.2995C5.41063 15.5028 5.65816 15.773 5.83752 16.0894C5.98552 16.3734 6.18765 16.6241 6.43192 16.8265C6.67619 17.0288 6.95762 17.1788 7.2595 17.2676C7.56138 17.3563 7.87757 17.3819 8.18929 17.3429C8.50101 17.3039 8.80191 17.2011 9.07414 17.0405C9.13091 16.4612 9.38101 15.9197 9.78216 15.5075C7.30311 15.2254 4.80079 14.8572 4.80079 10.4812C4.77588 9.98376 4.85638 9.48668 5.03675 9.02418C5.21712 8.56169 5.49307 8.14476 5.84561 7.8021C5.50911 6.79348 5.5502 5.69259 5.96092 4.71329C6.8874 4.41873 9.02155 5.94239 9.02155 5.94239C10.8445 5.42689 12.7696 5.42689 14.5926 5.94239C14.5926 5.94239 16.7257 4.41458 17.6532 4.71433C18.0622 5.69393 18.1015 6.79446 17.7635 7.8021C18.1295 8.13914 18.4209 8.55259 18.6182 9.01469C18.8155 9.47678 18.9141 9.97682 18.9074 10.4812C18.9074 14.8707 16.2948 15.2213 13.8158 15.5075C14.0826 15.7827 14.2882 16.1138 14.4184 16.4782C14.5487 16.8425 14.6005 17.2314 14.5703 17.6183C14.5703 19.1513 14.5572 21.0483 14.5572 21.4207C14.5572 21.7163 14.7595 22.0751 15.3249 21.9714C17.526 21.1976 19.4318 19.729 20.7689 17.7761C22.106 15.8232 22.8058 13.4863 22.7681 11.1004C22.7614 9.61744 22.4663 8.15072 21.9002 6.78607C21.3341 5.42142 20.5083 4.18626 19.471 3.15284C18.4338 2.11942 17.206 1.30851 15.8595 0.76754C14.513 0.226571 13.0748 -0.0335866 11.6291 0.0022873ZM5.08299 15.6901C5.02533 15.7357 5.03848 15.8405 5.11434 15.9266C5.1902 16.0127 5.2873 16.0303 5.34495 15.9722C5.4026 15.9141 5.38945 15.8218 5.3136 15.7357C5.23774 15.6496 5.14064 15.631 5.08299 15.6901ZM4.60356 15.3219C4.57221 15.381 4.61671 15.4536 4.70471 15.4992C4.71903 15.5108 4.73554 15.5191 4.75318 15.5238C4.77082 15.5284 4.7892 15.5293 4.80718 15.5262C4.82515 15.5232 4.84231 15.5164 4.85758 15.5062C4.87285 15.496 4.88589 15.4827 4.89587 15.4671C4.92722 15.408 4.88272 15.3354 4.79472 15.2897C4.70572 15.2617 4.63492 15.2762 4.60356 15.3208V15.3219ZM6.04082 16.941C5.97002 17.0001 5.99632 17.137 6.09848 17.2231C6.19962 17.3268 6.32908 17.3413 6.38674 17.2687C6.44439 17.1961 6.41809 17.0727 6.32908 16.9866C6.233 16.8818 6.09848 16.8673 6.04082 16.941ZM5.5351 16.272C5.4643 16.3176 5.4643 16.4358 5.5351 16.5406C5.6059 16.6454 5.72626 16.691 5.78392 16.6443C5.81861 16.606 5.83788 16.5556 5.83788 16.5033C5.83788 16.4509 5.81861 16.4006 5.78392 16.3622C5.72121 16.2585 5.6059 16.2128 5.5351 16.272Z" fill="#111111"/>
</svg>
