<svg width="23" height="22" viewBox="0 0 23 22" fill="none" xmlns="http://www.w3.org/2000/svg">
<path d="M21.1979 -0.000976562H2.3361C2.12872 0.000500094 1.92367 0.0428419 1.73268 0.123627C1.54168 0.204412 1.36848 0.322056 1.22299 0.469829C1.0775 0.617603 0.962565 0.792608 0.884766 0.984834C0.806968 1.17706 0.767829 1.38274 0.769588 1.5901V20.4131C0.767402 20.831 0.931121 21.2327 1.22481 21.53C1.5185 21.8274 1.91817 21.996 2.3361 21.999H21.1979C21.6163 21.996 22.0165 21.8275 22.311 21.5303C22.6055 21.2332 22.7703 20.8315 22.7695 20.4131V1.5901C22.7717 1.17083 22.6074 0.767816 22.3128 0.469518C22.0181 0.17122 21.6172 0.00200871 21.1979 -0.000976562ZM7.41956 18.8569H4.15719V8.35681H7.42366V18.8569H7.41956ZM5.78837 6.92792C5.41457 6.92791 5.04914 6.81712 4.73828 6.60954C4.42741 6.40195 4.18505 6.10689 4.04181 5.76163C3.89857 5.41636 3.86089 5.0364 3.93351 4.66972C4.00614 4.30305 4.18583 3.96614 4.44986 3.70154C4.7139 3.43694 5.05044 3.25653 5.41697 3.18311C5.7835 3.10969 6.16356 3.14655 6.50915 3.28903C6.85474 3.43152 7.15034 3.67323 7.35861 3.98363C7.56687 4.29403 7.67846 4.6592 7.67927 5.03299C7.67968 5.2816 7.63107 5.52786 7.53624 5.75768C7.44141 5.9875 7.30221 6.19637 7.12659 6.37236C6.95098 6.54834 6.7424 6.68799 6.51278 6.78332C6.28316 6.87865 6.037 6.92778 5.78837 6.92792ZM19.6468 18.861H16.3813V13.749C16.3813 12.5316 16.3567 10.9641 14.6875 10.9641C12.9886 10.9641 12.7278 12.2904 12.7278 13.6597V18.8548H9.46649V8.35681H12.5954V9.79391H12.6395C12.9535 9.25902 13.4065 8.81912 13.9503 8.52092C14.4942 8.22271 15.1086 8.07732 15.7284 8.10018C19.0288 8.10018 19.6427 10.2753 19.6427 13.1044L19.6468 18.861Z" fill="#175DA8"/>
</svg>
