<svg width="23" height="22" viewBox="0 0 23 22" fill="none" xmlns="http://www.w3.org/2000/svg">
<path d="M20.405 -0.000965576H3.12682C2.50163 -0.000965576 1.90204 0.247426 1.45997 0.689565C1.01789 1.1317 0.769531 1.73137 0.769531 2.35665L0.769531 19.6414C0.769531 20.2667 1.01789 20.8663 1.45997 21.3085C1.90204 21.7506 2.50163 21.999 3.12682 21.999H20.405C20.7152 22 21.0225 21.9397 21.3094 21.8216C21.5962 21.7036 21.8569 21.5301 22.0766 21.311C22.2962 21.092 22.4705 20.8318 22.5894 20.5453C22.7083 20.2588 22.7695 19.9516 22.7695 19.6414V2.35665C22.7695 2.04644 22.7083 1.73928 22.5894 1.45277C22.4705 1.16626 22.2962 0.906034 22.0766 0.687015C21.8569 0.467996 21.5962 0.294485 21.3094 0.176428C21.0225 0.0583702 20.7152 -0.00191259 20.405 -0.000965576ZM18.0087 7.79676C18.019 7.93453 18.019 8.07642 18.019 8.2142C18.0273 9.41985 17.796 10.6151 17.3385 11.7306C16.8811 12.8461 16.2065 13.8596 15.3541 14.7121C14.5017 15.5647 13.4884 16.2393 12.373 16.6968C11.2577 17.1544 10.0626 17.3857 8.8571 17.3773C7.10477 17.3826 5.38802 16.8829 3.91224 15.9379C4.17001 15.9657 4.42915 15.9788 4.68841 15.977C6.13772 15.9791 7.54559 15.4934 8.68542 14.5982C8.01347 14.5859 7.36215 14.3639 6.82248 13.9634C6.2828 13.5628 5.88174 13.0036 5.67533 12.3639C6.15857 12.4473 6.654 12.4274 7.12897 12.3053C6.40038 12.1567 5.74563 11.7606 5.27586 11.1841C4.80608 10.6076 4.55022 9.88633 4.55168 9.14264V9.09843C4.99673 9.34895 5.49501 9.48993 6.00533 9.5097C5.56421 9.21583 5.20262 8.8174 4.95276 8.3499C4.7029 7.88241 4.57253 7.36036 4.57327 6.83027C4.57028 6.259 4.72121 5.69748 5.01019 5.20471C5.81859 6.20033 6.82737 7.01474 7.97098 7.59504C9.11459 8.17533 10.3675 8.50855 11.6482 8.57303C11.4877 7.88179 11.5594 7.15689 11.8523 6.51052C12.1452 5.86414 12.6429 5.33234 13.2684 4.99739C13.894 4.66245 14.6125 4.54305 15.3127 4.65766C16.0129 4.77227 16.6559 5.11451 17.1421 5.63141C17.8629 5.49343 18.5542 5.23073 19.1848 4.85513C18.9446 5.59984 18.4408 6.23125 17.7681 6.6308C18.4083 6.55813 19.0339 6.38932 19.6237 6.13008C19.1852 6.77436 18.6388 7.33819 18.0087 7.79676Z" fill="#1794F4"/>
</svg>
