<svg width="21" height="20" viewBox="0 0 21 20" fill="none" xmlns="http://www.w3.org/2000/svg">
<path d="M19.9795 3.99902H15.9795V2.99902C15.9795 2.20337 15.6634 1.44031 15.1008 0.877703C14.5382 0.315094 13.7751 -0.000976562 12.9795 -0.000976562H8.97949C8.18384 -0.000976562 7.42078 0.315094 6.85817 0.877703C6.29556 1.44031 5.97949 2.20337 5.97949 2.99902V3.99902H1.97949C1.71428 3.99902 1.45992 4.10438 1.27239 4.29192C1.08485 4.47945 0.979492 4.73381 0.979492 4.99902V8.99902C0.981744 9.4184 1.0719 9.83265 1.24415 10.215C1.41639 10.5974 1.66689 10.9394 1.97949 11.219V16.999C1.97949 17.7947 2.29556 18.5577 2.85817 19.1203C3.42078 19.683 4.18384 19.999 4.97949 19.999H16.9795C17.7751 19.999 18.5382 19.683 19.1008 19.1203C19.6634 18.5577 19.9795 17.7947 19.9795 16.999V11.219C20.2921 10.9394 20.5426 10.5974 20.7148 10.215C20.8871 9.83265 20.9772 9.4184 20.9795 8.99902V4.99902C20.9795 4.73381 20.8741 4.47945 20.6866 4.29192C20.4991 4.10438 20.2447 3.99902 19.9795 3.99902ZM7.97949 2.99902C7.97949 2.73381 8.08485 2.47945 8.27239 2.29192C8.45992 2.10438 8.71428 1.99902 8.97949 1.99902H12.9795C13.2447 1.99902 13.4991 2.10438 13.6866 2.29192C13.8741 2.47945 13.9795 2.73381 13.9795 2.99902V3.99902H7.97949V2.99902ZM17.9795 16.999C17.9795 17.2642 17.8741 17.5186 17.6866 17.7061C17.4991 17.8937 17.2447 17.999 16.9795 17.999H4.97949C4.71428 17.999 4.45992 17.8937 4.27239 17.7061C4.08485 17.5186 3.97949 17.2642 3.97949 16.999V11.999H5.97949V12.999C5.97949 13.2642 6.08485 13.5186 6.27239 13.7061C6.45992 13.8937 6.71428 13.999 6.97949 13.999C7.24471 13.999 7.49906 13.8937 7.6866 13.7061C7.87414 13.5186 7.97949 13.2642 7.97949 12.999V11.999H13.9795V12.999C13.9795 13.2642 14.0848 13.5186 14.2724 13.7061C14.4599 13.8937 14.7143 13.999 14.9795 13.999C15.2447 13.999 15.4991 13.8937 15.6866 13.7061C15.8741 13.5186 15.9795 13.2642 15.9795 12.999V11.999H17.9795V16.999ZM18.9795 8.99902C18.9795 9.26424 18.8741 9.51859 18.6866 9.70613C18.4991 9.89367 18.2447 9.99902 17.9795 9.99902H15.9795V8.99902C15.9795 8.73381 15.8741 8.47945 15.6866 8.29192C15.4991 8.10438 15.2447 7.99902 14.9795 7.99902C14.7143 7.99902 14.4599 8.10438 14.2724 8.29192C14.0848 8.47945 13.9795 8.73381 13.9795 8.99902V9.99902H7.97949V8.99902C7.97949 8.73381 7.87414 8.47945 7.6866 8.29192C7.49906 8.10438 7.24471 7.99902 6.97949 7.99902C6.71428 7.99902 6.45992 8.10438 6.27239 8.29192C6.08485 8.47945 5.97949 8.73381 5.97949 8.99902V9.99902H3.97949C3.71428 9.99902 3.45992 9.89367 3.27239 9.70613C3.08485 9.51859 2.97949 9.26424 2.97949 8.99902V5.99902H18.9795V8.99902Z" fill="#175DA8"/>
</svg>
