<svg width="25" height="24" viewBox="0 0 25 24" fill="none" xmlns="http://www.w3.org/2000/svg">
<path d="M12.7305 1.99902C10.7527 1.99902 8.81926 2.58551 7.17477 3.68433C5.53028 4.78314 4.24855 6.34493 3.49168 8.17219C2.7348 9.99945 2.53677 12.0101 2.92262 13.9499C3.30847 15.8897 4.26088 17.6716 5.65941 19.0701C7.05793 20.4686 8.83976 21.421 10.7796 21.8069C12.7194 22.1927 14.73 21.9947 16.5573 21.2378C18.3846 20.4809 19.9464 19.1992 21.0452 17.5547C22.144 15.9102 22.7305 13.9768 22.7305 11.999C22.7305 10.6858 22.4718 9.38544 21.9693 8.17219C21.4667 6.95893 20.7301 5.85654 19.8015 4.92796C18.873 3.99937 17.7706 3.26278 16.5573 2.76023C15.3441 2.25768 14.0437 1.99902 12.7305 1.99902ZM12.7305 19.999C10.6087 19.999 8.57391 19.1562 7.07362 17.6559C5.57333 16.1556 4.73047 14.1208 4.73047 11.999C4.72826 10.2224 5.32349 8.49657 6.42047 7.09902L17.6305 18.309C16.2329 19.406 14.5071 20.0012 12.7305 19.999ZM19.0405 16.899L7.83047 5.68902C9.22802 4.59204 10.9538 3.99681 12.7305 3.99902C14.8522 3.99902 16.887 4.84188 18.3873 6.34217C19.8876 7.84246 20.7305 9.87729 20.7305 11.999C20.7327 13.7757 20.1375 15.5015 19.0405 16.899Z" fill="#175DA8"/>
</svg>
