<svg width="25" height="24" viewBox="0 0 25 24" fill="none" xmlns="http://www.w3.org/2000/svg">
<path d="M21.9795 5.99902H17.9795V4.99902C17.9795 4.20337 17.6634 3.44031 17.1008 2.8777C16.5382 2.31509 15.7751 1.99902 14.9795 1.99902H10.9795C10.1838 1.99902 9.42078 2.31509 8.85817 2.8777C8.29556 3.44031 7.97949 4.20337 7.97949 4.99902V5.99902H3.97949C3.71428 5.99902 3.45992 6.10438 3.27239 6.29192C3.08485 6.47945 2.97949 6.73381 2.97949 6.99902V10.999C2.98174 11.4184 3.0719 11.8327 3.24415 12.215C3.41639 12.5974 3.66689 12.9394 3.97949 13.219V18.999C3.97949 19.7947 4.29556 20.5577 4.85817 21.1203C5.42078 21.683 6.18384 21.999 6.97949 21.999H18.9795C19.7751 21.999 20.5382 21.683 21.1008 21.1203C21.6634 20.5577 21.9795 19.7947 21.9795 18.999V13.219C22.2921 12.9394 22.5426 12.5974 22.7148 12.215C22.8871 11.8327 22.9772 11.4184 22.9795 10.999V6.99902C22.9795 6.73381 22.8741 6.47945 22.6866 6.29192C22.4991 6.10438 22.2447 5.99902 21.9795 5.99902ZM9.97949 4.99902C9.97949 4.73381 10.0848 4.47945 10.2724 4.29192C10.4599 4.10438 10.7143 3.99902 10.9795 3.99902H14.9795C15.2447 3.99902 15.4991 4.10438 15.6866 4.29192C15.8741 4.47945 15.9795 4.73381 15.9795 4.99902V5.99902H9.97949V4.99902ZM19.9795 18.999C19.9795 19.2642 19.8741 19.5186 19.6866 19.7061C19.4991 19.8937 19.2447 19.999 18.9795 19.999H6.97949C6.71428 19.999 6.45992 19.8937 6.27239 19.7061C6.08485 19.5186 5.97949 19.2642 5.97949 18.999V13.999H7.97949V14.999C7.97949 15.2642 8.08485 15.5186 8.27239 15.7061C8.45992 15.8937 8.71428 15.999 8.97949 15.999C9.24471 15.999 9.49906 15.8937 9.6866 15.7061C9.87414 15.5186 9.97949 15.2642 9.97949 14.999V13.999H15.9795V14.999C15.9795 15.2642 16.0848 15.5186 16.2724 15.7061C16.4599 15.8937 16.7143 15.999 16.9795 15.999C17.2447 15.999 17.4991 15.8937 17.6866 15.7061C17.8741 15.5186 17.9795 15.2642 17.9795 14.999V13.999H19.9795V18.999ZM20.9795 10.999C20.9795 11.2642 20.8741 11.5186 20.6866 11.7061C20.4991 11.8937 20.2447 11.999 19.9795 11.999H17.9795V10.999C17.9795 10.7338 17.8741 10.4795 17.6866 10.2919C17.4991 10.1044 17.2447 9.99902 16.9795 9.99902C16.7143 9.99902 16.4599 10.1044 16.2724 10.2919C16.0848 10.4795 15.9795 10.7338 15.9795 10.999V11.999H9.97949V10.999C9.97949 10.7338 9.87414 10.4795 9.6866 10.2919C9.49906 10.1044 9.24471 9.99902 8.97949 9.99902C8.71428 9.99902 8.45992 10.1044 8.27239 10.2919C8.08485 10.4795 7.97949 10.7338 7.97949 10.999V11.999H5.97949C5.71428 11.999 5.45992 11.8937 5.27239 11.7061C5.08485 11.5186 4.97949 11.2642 4.97949 10.999V7.99902H20.9795V10.999Z" fill="#175DA8"/>
</svg>
