<svg width="12" height="11" viewBox="0 0 12 11" fill="none" xmlns="http://www.w3.org/2000/svg">
<path d="M10.9285 8.73158L7.66551 5.49958L10.9285 2.26658C10.9596 2.23573 10.9842 2.19904 11.001 2.15862C11.0178 2.1182 11.0265 2.07486 11.0265 2.03108C11.0265 1.98731 11.0178 1.94397 11.001 1.90355C10.9842 1.86313 10.9596 1.82644 10.9285 1.79558L9.38651 0.268584C9.3407 0.223458 9.28297 0.192338 9.22009 0.178876C9.1572 0.165414 9.09179 0.170169 9.03152 0.192584C8.98654 0.209048 8.94562 0.234964 8.91152 0.268584L5.64851 3.50158L2.38451 0.268584C2.35043 0.23494 2.3095 0.20902 2.26451 0.192584C2.20424 0.170169 2.13883 0.165414 2.07594 0.178876C2.01306 0.192338 1.95533 0.223458 1.90951 0.268584L0.367515 1.79558C0.336463 1.82644 0.31182 1.86313 0.295004 1.90355C0.278188 1.94397 0.269531 1.98731 0.269531 2.03108C0.269531 2.07486 0.278188 2.1182 0.295004 2.15862C0.31182 2.19904 0.336463 2.23573 0.367515 2.26658L3.63151 5.49958L0.367515 8.73158C0.336463 8.76244 0.31182 8.79913 0.295004 8.83955C0.278188 8.87996 0.269531 8.92331 0.269531 8.96708C0.269531 9.01086 0.278188 9.0542 0.295004 9.09462C0.31182 9.13504 0.336463 9.17173 0.367515 9.20258L1.90951 10.7296C1.95533 10.7747 2.01306 10.8058 2.07594 10.8193C2.13883 10.8328 2.20424 10.828 2.26451 10.8056C2.30949 10.7891 2.35041 10.7632 2.38451 10.7296L5.64851 7.49658L8.91251 10.7286C8.94662 10.7622 8.98754 10.7881 9.03251 10.8046C9.09279 10.827 9.1582 10.8318 9.22108 10.8183C9.28397 10.8048 9.3417 10.7737 9.38752 10.7286L10.9295 9.20158C10.9606 9.17073 10.9852 9.13404 11.002 9.09362C11.0188 9.0532 11.0275 9.00986 11.0275 8.96608C11.0275 8.92231 11.0188 8.87897 11.002 8.83855C10.9852 8.79813 10.9606 8.76144 10.9295 8.73058L10.9285 8.73158Z" fill="#175DA8"/>
</svg>
