<svg width="17" height="17" viewBox="0 0 17 17" fill="none" xmlns="http://www.w3.org/2000/svg">
<path d="M12.313 10.8325V11.8325C12.313 12.2325 12.0463 12.4992 11.6463 12.4992C11.2463 12.4992 10.9797 12.2325 10.9797 11.8325V10.8325H6.97966V11.8325C6.97966 12.2325 6.71299 12.4992 6.31299 12.4992C5.91299 12.4992 5.64632 12.2325 5.64632 11.8325V10.8325H4.31299C3.84632 10.8325 3.37966 10.6992 2.97965 10.4992V13.1659C2.97965 14.2992 3.84632 15.1659 4.97966 15.1659H12.9797C14.113 15.1659 14.9797 14.2992 14.9797 13.1659V10.4992C14.5797 10.6992 14.113 10.8325 13.6463 10.8325H12.313ZM14.9797 4.49919H12.313V3.83252C12.313 2.69919 11.4463 1.83252 10.313 1.83252H7.64632C6.51299 1.83252 5.64632 2.69919 5.64632 3.83252V4.49919H2.97965C2.57965 4.49919 2.31299 4.76585 2.31299 5.16585V7.83252C2.31299 8.96585 3.17965 9.83252 4.31299 9.83252H13.6463C14.7797 9.83252 15.6463 8.96585 15.6463 7.83252V5.16585C15.6463 4.76585 15.3797 4.49919 14.9797 4.49919ZM10.9797 4.49919H6.97966V3.83252C6.97966 3.43252 7.24632 3.16585 7.64632 3.16585H10.313C10.713 3.16585 10.9797 3.43252 10.9797 3.83252V4.49919Z" fill="#175DA8"/>
</svg>
