<svg width="13" height="19" viewBox="0 0 13 19" fill="none" xmlns="http://www.w3.org/2000/svg">
<path d="M12.7991 5.11408L12.1954 7.17374H0.689719L1.29341 5.11408H12.7991ZM7.40137 18.999L0.902788 11.0445L0.867276 9.553H4.09881C4.93925 9.553 5.65539 9.43463 6.24725 9.19789C6.8391 8.95523 7.29187 8.59419 7.60556 8.11479C7.91924 7.62947 8.07608 7.01986 8.07608 6.28595C8.07608 5.20286 7.75056 4.35354 7.09952 3.73801C6.44848 3.11657 5.44824 2.80584 4.09881 2.80584H0.689719L1.29341 0.817205H4.09881C5.54294 0.817205 6.72665 1.05691 7.64995 1.53631C8.57916 2.00979 9.26571 2.66084 9.70961 3.48943C10.1594 4.31211 10.3843 5.24429 10.3843 6.28595C10.3843 7.22701 10.1772 8.09408 9.76287 8.88716C9.35449 9.67433 8.69753 10.3076 7.79199 10.787C6.89237 11.2664 5.70274 11.5061 4.2231 11.5061H4.16983L10.1713 18.857V18.999H7.40137ZM12.7991 0.817205L12.1954 2.87686L3.14 2.80584L3.7437 0.817205H12.7991Z" fill="#175DA8"/>
</svg>
