<svg width="21" height="20" viewBox="0 0 21 20" fill="none" xmlns="http://www.w3.org/2000/svg">
<path d="M18.0296 8.02396C17.9126 6.80638 17.4823 5.63986 16.7806 4.63797C16.0789 3.63608 15.1297 2.83298 14.0255 2.30687C12.9212 1.78075 11.6995 1.54956 10.4794 1.63579C9.25926 1.72203 8.08225 2.12276 7.06297 2.79896C6.1873 3.38449 5.45218 4.1567 4.91042 5.06011C4.36867 5.96352 4.03372 6.97571 3.92964 8.02396C3.82754 9.06534 3.95853 10.1164 4.31311 11.1009C4.66769 12.0853 5.23697 12.9785 5.97964 13.7156L10.3963 18.1406C10.4738 18.2187 10.5659 18.2807 10.6675 18.323C10.769 18.3653 10.878 18.3871 10.988 18.3871C11.098 18.3871 11.2069 18.3653 11.3085 18.323C11.41 18.2807 11.5022 18.2187 11.5796 18.1406L15.9796 13.7156C16.7223 12.9785 17.2916 12.0853 17.6462 11.1009C18.0007 10.1164 18.1317 9.06534 18.0296 8.02396ZM14.813 12.5406L10.9796 16.374L7.1463 12.5406C6.58138 11.9757 6.14864 11.2926 5.87919 10.5404C5.60975 9.78828 5.51029 8.98578 5.58797 8.19062C5.66615 7.38321 5.92277 6.60326 6.33928 5.90716C6.75579 5.21106 7.32177 4.61621 7.9963 4.16562C8.88042 3.57832 9.91823 3.26503 10.9796 3.26503C12.041 3.26503 13.0788 3.57832 13.963 4.16562C14.6355 4.61447 15.2002 5.20669 15.6166 5.89974C16.033 6.59278 16.2907 7.36946 16.3713 8.17396C16.4515 8.97181 16.3533 9.77752 16.0838 10.5327C15.8143 11.288 15.3802 11.9738 14.813 12.5406ZM10.9796 4.99896C10.238 4.99896 9.51293 5.21889 8.89625 5.63094C8.27957 6.043 7.79892 6.62867 7.51509 7.31389C7.23126 7.99912 7.157 8.75312 7.30169 9.48054C7.44639 10.208 7.80354 10.8762 8.32799 11.4006C8.85243 11.9251 9.52062 12.2822 10.248 12.4269C10.9755 12.5716 11.7295 12.4973 12.4147 12.2135C13.0999 11.9297 13.6856 11.449 14.0976 10.8323C14.5097 10.2157 14.7296 9.49063 14.7296 8.74896C14.7274 7.75507 14.3316 6.80252 13.6289 6.09974C12.9261 5.39695 11.9735 5.00116 10.9796 4.99896ZM10.9796 10.8323C10.5676 10.8323 10.1648 10.7101 9.8222 10.4812C9.4796 10.2523 9.21257 9.92689 9.05489 9.54621C8.89721 9.16553 8.85595 8.74664 8.93633 8.34252C9.01672 7.93839 9.21514 7.56718 9.5065 7.27582C9.79786 6.98446 10.1691 6.78604 10.5732 6.70565C10.9773 6.62527 11.3962 6.66652 11.7769 6.82421C12.1576 6.98189 12.4829 7.24891 12.7119 7.59152C12.9408 7.93412 13.063 8.33691 13.063 8.74896C13.063 9.30149 12.8435 9.83139 12.4528 10.2221C12.0621 10.6128 11.5322 10.8323 10.9796 10.8323Z" fill="#175DA8"/>
</svg>
