<svg width="18" height="22" viewBox="0 0 18 22" fill="none" xmlns="http://www.w3.org/2000/svg">
<path d="M11.4694 9.85884C11.8043 9.3978 12.0052 8.85313 12.0499 8.28504C12.0945 7.71695 11.9813 7.14757 11.7225 6.63984C11.4638 6.13212 11.0697 5.70582 10.5838 5.40809C10.098 5.11035 9.53922 4.95278 8.96937 4.95278C8.39953 4.95278 7.84078 5.11035 7.3549 5.40809C6.86902 5.70582 6.47494 6.13212 6.21622 6.63984C5.95749 7.14757 5.84421 7.71695 5.88889 8.28504C5.93356 8.85313 6.13446 9.3978 6.46937 9.85884C6.04455 10.1296 5.66633 10.4673 5.34937 10.8588C5.26664 10.9659 5.2058 11.0881 5.17032 11.2187C5.13484 11.3492 5.12543 11.4855 5.1426 11.6197C5.15978 11.7538 5.20322 11.8833 5.27044 12.0007C5.33766 12.1181 5.42735 12.2211 5.53437 12.3038C5.6414 12.3866 5.76368 12.4474 5.89422 12.4829C6.02476 12.5184 6.16101 12.5278 6.29519 12.5106C6.42937 12.4934 6.55885 12.45 6.67624 12.3828C6.79364 12.3156 6.89664 12.2259 6.97937 12.1188C7.2236 11.8084 7.53485 11.5572 7.88984 11.3841C8.24484 11.2109 8.63439 11.1202 9.02937 11.1188C9.42435 11.1202 9.81391 11.2109 10.1689 11.3841C10.5239 11.5572 10.8352 11.8084 11.0794 12.1188C11.1735 12.2349 11.2924 12.3283 11.4274 12.3924C11.5624 12.4564 11.71 12.4894 11.8594 12.4888C12.0468 12.488 12.2303 12.4344 12.3888 12.3343C12.5473 12.2342 12.6745 12.0916 12.7558 11.9227C12.8371 11.7538 12.8693 11.5654 12.8487 11.3791C12.8282 11.1927 12.7556 11.0159 12.6394 10.8688C12.3082 10.4695 11.9128 10.1282 11.4694 9.85884ZM8.97937 9.12884C8.76553 9.1287 8.55645 9.06566 8.37816 8.94756C8.19988 8.82947 8.06028 8.66154 7.97673 8.46469C7.89319 8.26783 7.86939 8.05076 7.90831 7.84048C7.94723 7.6302 8.04714 7.43602 8.1956 7.28211C8.34406 7.1282 8.53452 7.02135 8.74326 6.97489C8.952 6.92842 9.16979 6.94438 9.36953 7.02078C9.56926 7.09718 9.74211 7.23065 9.86655 7.40456C9.99099 7.57847 10.0615 7.78514 10.0694 7.99884C10.0748 8.14532 10.0505 8.29137 9.99817 8.42826C9.94581 8.56516 9.86637 8.69009 9.76461 8.79558C9.66286 8.90107 9.54087 8.98496 9.40595 9.04222C9.27103 9.09948 9.12594 9.12894 8.97937 9.12884ZM17.4394 8.62884C17.299 7.16776 16.7826 5.76793 15.9406 4.56566C15.0985 3.3634 13.9595 2.39967 12.6344 1.76834C11.3093 1.137 9.84325 0.859564 8.37909 0.963047C6.91492 1.06653 5.50251 1.5474 4.27937 2.35884C3.22857 3.06149 2.34643 3.98814 1.69632 5.07223C1.04621 6.15633 0.644268 7.37095 0.519373 8.62884C0.396856 9.8785 0.554047 11.1398 0.979543 12.3211C1.40504 13.5025 2.08817 14.5743 2.97937 15.4588L8.27937 20.7688C8.37234 20.8626 8.48294 20.937 8.6048 20.9877C8.72666 21.0385 8.85736 21.0646 8.98937 21.0646C9.12138 21.0646 9.25209 21.0385 9.37395 20.9877C9.49581 20.937 9.60641 20.8626 9.69937 20.7688L14.9794 15.4588C15.8706 14.5743 16.5537 13.5025 16.9792 12.3211C17.4047 11.1398 17.5619 9.8785 17.4394 8.62884ZM13.5794 14.0488L8.97937 18.6488L4.37937 14.0488C3.70146 13.3709 3.18218 12.5512 2.85884 11.6486C2.53551 10.746 2.41616 9.78304 2.50937 8.82884C2.60319 7.85995 2.91114 6.924 3.41094 6.08869C3.91075 5.25337 4.58993 4.53955 5.39937 3.99884C6.46032 3.29408 7.70568 2.91814 8.97937 2.91814C10.2531 2.91814 11.4984 3.29408 12.5594 3.99884C13.3664 4.53746 14.044 5.24813 14.5437 6.07978C15.0434 6.91144 15.3527 7.84345 15.4494 8.80884C15.5456 9.76627 15.4278 10.7331 15.1044 11.6394C14.7809 12.5457 14.26 13.3687 13.5794 14.0488Z" fill="#175DA8"/>
</svg>
