<svg width="21" height="20" viewBox="0 0 21 20" fill="none" xmlns="http://www.w3.org/2000/svg">
<path d="M10.9795 11.999C11.1773 11.999 11.3706 11.9404 11.5351 11.8305C11.6995 11.7206 11.8277 11.5644 11.9034 11.3817C11.9791 11.199 11.9989 10.9979 11.9603 10.8039C11.9217 10.61 11.8265 10.4318 11.6866 10.2919C11.5467 10.1521 11.3686 10.0568 11.1746 10.0182C10.9806 9.97965 10.7795 9.99946 10.5968 10.0751C10.4141 10.1508 10.2579 10.279 10.148 10.4435C10.0381 10.6079 9.97949 10.8012 9.97949 10.999C9.97949 11.2642 10.0848 11.5186 10.2724 11.7061C10.4599 11.8937 10.7143 11.999 10.9795 11.999ZM15.9795 11.999C16.1773 11.999 16.3706 11.9404 16.5351 11.8305C16.6995 11.7206 16.8277 11.5644 16.9034 11.3817C16.9791 11.199 16.9989 10.9979 16.9603 10.8039C16.9217 10.61 16.8265 10.4318 16.6866 10.2919C16.5467 10.1521 16.3686 10.0568 16.1746 10.0182C15.9806 9.97965 15.7795 9.99946 15.5968 10.0751C15.4141 10.1508 15.2579 10.279 15.148 10.4435C15.0381 10.6079 14.9795 10.8012 14.9795 10.999C14.9795 11.2642 15.0848 11.5186 15.2724 11.7061C15.4599 11.8937 15.7143 11.999 15.9795 11.999ZM10.9795 15.999C11.1773 15.999 11.3706 15.9404 11.5351 15.8305C11.6995 15.7206 11.8277 15.5644 11.9034 15.3817C11.9791 15.199 11.9989 14.9979 11.9603 14.8039C11.9217 14.61 11.8265 14.4318 11.6866 14.2919C11.5467 14.1521 11.3686 14.0568 11.1746 14.0182C10.9806 13.9797 10.7795 13.9995 10.5968 14.0751C10.4141 14.1508 10.2579 14.279 10.148 14.4435C10.0381 14.6079 9.97949 14.8012 9.97949 14.999C9.97949 15.2642 10.0848 15.5186 10.2724 15.7061C10.4599 15.8937 10.7143 15.999 10.9795 15.999ZM15.9795 15.999C16.1773 15.999 16.3706 15.9404 16.5351 15.8305C16.6995 15.7206 16.8277 15.5644 16.9034 15.3817C16.9791 15.199 16.9989 14.9979 16.9603 14.8039C16.9217 14.61 16.8265 14.4318 16.6866 14.2919C16.5467 14.1521 16.3686 14.0568 16.1746 14.0182C15.9806 13.9797 15.7795 13.9995 15.5968 14.0751C15.4141 14.1508 15.2579 14.279 15.148 14.4435C15.0381 14.6079 14.9795 14.8012 14.9795 14.999C14.9795 15.2642 15.0848 15.5186 15.2724 15.7061C15.4599 15.8937 15.7143 15.999 15.9795 15.999ZM5.97949 11.999C6.17727 11.999 6.37061 11.9404 6.53506 11.8305C6.69951 11.7206 6.82768 11.5644 6.90337 11.3817C6.97906 11.199 6.99886 10.9979 6.96028 10.8039C6.92169 10.61 6.82645 10.4318 6.6866 10.2919C6.54675 10.1521 6.36856 10.0568 6.17458 10.0182C5.9806 9.97965 5.77953 9.99946 5.59681 10.0751C5.41408 10.1508 5.2579 10.279 5.14802 10.4435C5.03814 10.6079 4.97949 10.8012 4.97949 10.999C4.97949 11.2642 5.08485 11.5186 5.27239 11.7061C5.45992 11.8937 5.71428 11.999 5.97949 11.999ZM17.9795 1.99902H16.9795V0.999023C16.9795 0.733807 16.8741 0.479453 16.6866 0.291917C16.4991 0.10438 16.2447 -0.000976562 15.9795 -0.000976562C15.7143 -0.000976562 15.4599 0.10438 15.2724 0.291917C15.0848 0.479453 14.9795 0.733807 14.9795 0.999023V1.99902H6.97949V0.999023C6.97949 0.733807 6.87414 0.479453 6.6866 0.291917C6.49906 0.10438 6.24471 -0.000976562 5.97949 -0.000976562C5.71428 -0.000976562 5.45992 0.10438 5.27239 0.291917C5.08485 0.479453 4.97949 0.733807 4.97949 0.999023V1.99902H3.97949C3.18384 1.99902 2.42078 2.31509 1.85817 2.8777C1.29556 3.44031 0.979492 4.20337 0.979492 4.99902V16.999C0.979492 17.7947 1.29556 18.5577 1.85817 19.1203C2.42078 19.683 3.18384 19.999 3.97949 19.999H17.9795C18.7751 19.999 19.5382 19.683 20.1008 19.1203C20.6634 18.5577 20.9795 17.7947 20.9795 16.999V4.99902C20.9795 4.20337 20.6634 3.44031 20.1008 2.8777C19.5382 2.31509 18.7751 1.99902 17.9795 1.99902ZM18.9795 16.999C18.9795 17.2642 18.8741 17.5186 18.6866 17.7061C18.4991 17.8937 18.2447 17.999 17.9795 17.999H3.97949C3.71428 17.999 3.45992 17.8937 3.27239 17.7061C3.08485 17.5186 2.97949 17.2642 2.97949 16.999V7.99902H18.9795V16.999ZM18.9795 5.99902H2.97949V4.99902C2.97949 4.73381 3.08485 4.47945 3.27239 4.29192C3.45992 4.10438 3.71428 3.99902 3.97949 3.99902H17.9795C18.2447 3.99902 18.4991 4.10438 18.6866 4.29192C18.8741 4.47945 18.9795 4.73381 18.9795 4.99902V5.99902ZM5.97949 15.999C6.17727 15.999 6.37061 15.9404 6.53506 15.8305C6.69951 15.7206 6.82768 15.5644 6.90337 15.3817C6.97906 15.199 6.99886 14.9979 6.96028 14.8039C6.92169 14.61 6.82645 14.4318 6.6866 14.2919C6.54675 14.1521 6.36856 14.0568 6.17458 14.0182C5.9806 13.9797 5.77953 13.9995 5.59681 14.0751C5.41408 14.1508 5.2579 14.279 5.14802 14.4435C5.03814 14.6079 4.97949 14.8012 4.97949 14.999C4.97949 15.2642 5.08485 15.5186 5.27239 15.7061C5.45992 15.8937 5.71428 15.999 5.97949 15.999Z" fill="#175DA8"/>
</svg>
