<svg width="14" height="15" viewBox="0 0 14 15" fill="none" xmlns="http://www.w3.org/2000/svg">
<path d="M10.313 9.83252V10.8325C10.313 11.2325 10.0463 11.4992 9.64632 11.4992C9.24632 11.4992 8.97966 11.2325 8.97966 10.8325V9.83252H4.97966V10.8325C4.97966 11.2325 4.71299 11.4992 4.31299 11.4992C3.91299 11.4992 3.64632 11.2325 3.64632 10.8325V9.83252H2.31299C1.84632 9.83252 1.37965 9.69919 0.979655 9.49919V12.1659C0.979655 13.2992 1.84632 14.1659 2.97966 14.1659H10.9797C12.113 14.1659 12.9797 13.2992 12.9797 12.1659V9.49919C12.5797 9.69919 12.113 9.83252 11.6463 9.83252H10.313ZM12.9797 3.49919H10.313V2.83252C10.313 1.69919 9.44632 0.83252 8.31299 0.83252H5.64632C4.51299 0.83252 3.64632 1.69919 3.64632 2.83252V3.49919H0.979655C0.579655 3.49919 0.312988 3.76585 0.312988 4.16585V6.83252C0.312988 7.96585 1.17965 8.83252 2.31299 8.83252H11.6463C12.7797 8.83252 13.6463 7.96585 13.6463 6.83252V4.16585C13.6463 3.76585 13.3797 3.49919 12.9797 3.49919ZM8.97966 3.49919H4.97966V2.83252C4.97966 2.43252 5.24632 2.16585 5.64632 2.16585H8.31299C8.71299 2.16585 8.97966 2.43252 8.97966 2.83252V3.49919Z" fill="#175DA8"/>
</svg>
