<svg width="19" height="19" viewBox="0 0 19 19" fill="none" xmlns="http://www.w3.org/2000/svg">
<path d="M17.8 17.146H16.984V0.859039C16.9666 0.615136 16.8533 0.388061 16.6689 0.227465C16.4845 0.066869 16.244 -0.0141805 16 0.00203878H2.286C2.04268 -0.0130823 1.80323 0.0684648 1.61971 0.228948C1.43619 0.389432 1.32345 0.615875 1.306 0.859039V17.146H0.49C0.368228 17.1383 0.248358 17.1791 0.156555 17.2595C0.0647528 17.3399 0.00847282 17.4533 0 17.575L0 18.289H18.287V17.575C18.2785 17.4539 18.2227 17.3409 18.1315 17.2606C18.0404 17.1803 17.9213 17.1392 17.8 17.146ZM5.225 2.71604C5.23347 2.59432 5.28975 2.48089 5.38156 2.40052C5.47336 2.32014 5.59323 2.27935 5.715 2.28704H7.347C7.46877 2.27935 7.58864 2.32014 7.68044 2.40052C7.77225 2.48089 7.82853 2.59432 7.837 2.71604V4.14504C7.82853 4.26676 7.77225 4.38019 7.68044 4.46056C7.58864 4.54093 7.46877 4.58173 7.347 4.57404H5.715C5.59323 4.58173 5.47336 4.54093 5.38156 4.46056C5.28975 4.38019 5.23347 4.26676 5.225 4.14504V2.71604ZM5.225 6.14504C5.23347 6.02332 5.28975 5.90989 5.38156 5.82952C5.47336 5.74914 5.59323 5.70835 5.715 5.71604H7.347C7.46877 5.70835 7.58864 5.74914 7.68044 5.82952C7.77225 5.90989 7.82853 6.02332 7.837 6.14504V7.57404C7.82828 7.69558 7.77189 7.80875 7.68011 7.88892C7.58834 7.96908 7.46861 8.00974 7.347 8.00204H5.715C5.59323 8.00973 5.47336 7.96893 5.38156 7.88856C5.28975 7.80819 5.23347 7.69476 5.225 7.57304V6.14504ZM7.348 11.431H5.715C5.59323 11.4387 5.47336 11.3979 5.38156 11.3176C5.28975 11.2372 5.23347 11.1238 5.225 11.002V9.57404C5.23347 9.45232 5.28975 9.33889 5.38156 9.25852C5.47336 9.17814 5.59323 9.13735 5.715 9.14504H7.347C7.46877 9.13735 7.58864 9.17814 7.68044 9.25852C7.77225 9.33889 7.82853 9.45232 7.837 9.57404V11.002C7.82853 11.1238 7.77225 11.2372 7.68044 11.3176C7.58864 11.3979 7.46877 11.4387 7.347 11.431H7.348ZM10.448 17.146H7.837V14.146C7.84547 14.0243 7.90175 13.9109 7.99356 13.8305C8.08536 13.7501 8.20523 13.7093 8.327 13.717H9.96C10.0818 13.7093 10.2016 13.7501 10.2934 13.8305C10.3852 13.9109 10.4415 14.0243 10.45 14.146L10.448 17.146ZM13.062 11.002C13.0535 11.1238 12.9972 11.2372 12.9054 11.3176C12.8136 11.3979 12.6938 11.4387 12.572 11.431H10.94C10.8182 11.4387 10.6984 11.3979 10.6066 11.3176C10.5148 11.2372 10.4585 11.1238 10.45 11.002V9.57404C10.4585 9.45232 10.5148 9.33889 10.6066 9.25852C10.6984 9.17814 10.8182 9.13735 10.94 9.14504H12.573C12.6948 9.13735 12.8146 9.17814 12.9064 9.25852C12.9982 9.33889 13.0545 9.45232 13.063 9.57404L13.062 11.002ZM13.062 7.57304C13.0535 7.69476 12.9972 7.80819 12.9054 7.88856C12.8136 7.96893 12.6938 8.00973 12.572 8.00204H10.94C10.8182 8.00973 10.6984 7.96893 10.6066 7.88856C10.5148 7.80819 10.4585 7.69476 10.45 7.57304V6.14504C10.4585 6.02332 10.5148 5.90989 10.6066 5.82952C10.6984 5.74914 10.8182 5.70835 10.94 5.71604H12.573C12.6948 5.70835 12.8146 5.74914 12.9064 5.82952C12.9982 5.90989 13.0545 6.02332 13.063 6.14504L13.062 7.57304ZM13.062 4.14404C13.0535 4.26576 12.9972 4.37919 12.9054 4.45956C12.8136 4.53993 12.6938 4.58073 12.572 4.57304H10.94C10.8182 4.58073 10.6984 4.53993 10.6066 4.45956C10.5148 4.37919 10.4585 4.26576 10.45 4.14404V2.71604C10.4585 2.59432 10.5148 2.48089 10.6066 2.40052C10.6984 2.32014 10.8182 2.27935 10.94 2.28704H12.573C12.6948 2.27935 12.8146 2.32014 12.9064 2.40052C12.9982 2.48089 13.0545 2.59432 13.063 2.71604L13.062 4.14404Z" fill="#4EA647"/>
</svg>
