<svg width="20" height="20" viewBox="0 0 20 20" fill="none" xmlns="http://www.w3.org/2000/svg">
<path d="M19 3.99902H15V2.99902C15 2.20337 14.6839 1.44031 14.1213 0.877703C13.5587 0.315094 12.7956 -0.000976562 12 -0.000976562H8C7.20435 -0.000976562 6.44129 0.315094 5.87868 0.877703C5.31607 1.44031 5 2.20337 5 2.99902V3.99902H1C0.734784 3.99902 0.48043 4.10438 0.292893 4.29192C0.105357 4.47945 0 4.73381 0 4.99902V8.99902C0.00225164 9.4184 0.0924089 9.83265 0.264653 10.215C0.436898 10.5974 0.687403 10.9394 1 11.219V16.999C1 17.7947 1.31607 18.5577 1.87868 19.1203C2.44129 19.683 3.20435 19.999 4 19.999H16C16.7956 19.999 17.5587 19.683 18.1213 19.1203C18.6839 18.5577 19 17.7947 19 16.999V11.219C19.3126 10.9394 19.5631 10.5974 19.7353 10.215C19.9076 9.83265 19.9977 9.4184 20 8.99902V4.99902C20 4.73381 19.8946 4.47945 19.7071 4.29192C19.5196 4.10438 19.2652 3.99902 19 3.99902ZM7 2.99902C7 2.73381 7.10536 2.47945 7.29289 2.29192C7.48043 2.10438 7.73478 1.99902 8 1.99902H12C12.2652 1.99902 12.5196 2.10438 12.7071 2.29192C12.8946 2.47945 13 2.73381 13 2.99902V3.99902H7V2.99902ZM17 16.999C17 17.2642 16.8946 17.5186 16.7071 17.7061C16.5196 17.8937 16.2652 17.999 16 17.999H4C3.73478 17.999 3.48043 17.8937 3.29289 17.7061C3.10536 17.5186 3 17.2642 3 16.999V11.999H5V12.999C5 13.2642 5.10536 13.5186 5.29289 13.7061C5.48043 13.8937 5.73478 13.999 6 13.999C6.26522 13.999 6.51957 13.8937 6.70711 13.7061C6.89464 13.5186 7 13.2642 7 12.999V11.999H13V12.999C13 13.2642 13.1054 13.5186 13.2929 13.7061C13.4804 13.8937 13.7348 13.999 14 13.999C14.2652 13.999 14.5196 13.8937 14.7071 13.7061C14.8946 13.5186 15 13.2642 15 12.999V11.999H17V16.999ZM18 8.99902C18 9.26424 17.8946 9.51859 17.7071 9.70613C17.5196 9.89367 17.2652 9.99902 17 9.99902H15V8.99902C15 8.73381 14.8946 8.47945 14.7071 8.29192C14.5196 8.10438 14.2652 7.99902 14 7.99902C13.7348 7.99902 13.4804 8.10438 13.2929 8.29192C13.1054 8.47945 13 8.73381 13 8.99902V9.99902H7V8.99902C7 8.73381 6.89464 8.47945 6.70711 8.29192C6.51957 8.10438 6.26522 7.99902 6 7.99902C5.73478 7.99902 5.48043 8.10438 5.29289 8.29192C5.10536 8.47945 5 8.73381 5 8.99902V9.99902H3C2.73478 9.99902 2.48043 9.89367 2.29289 9.70613C2.10536 9.51859 2 9.26424 2 8.99902V5.99902H18V8.99902Z" fill="#6F6F6F"/>
</svg>
