<svg width="25" height="24" viewBox="0 0 25 24" fill="none" xmlns="http://www.w3.org/2000/svg">
<path d="M12.9795 13.999C13.1773 13.999 13.3706 13.9404 13.5351 13.8305C13.6995 13.7206 13.8277 13.5644 13.9034 13.3817C13.9791 13.199 13.9989 12.9979 13.9603 12.8039C13.9217 12.61 13.8265 12.4318 13.6866 12.2919C13.5467 12.1521 13.3686 12.0568 13.1746 12.0182C12.9806 11.9797 12.7795 11.9995 12.5968 12.0751C12.4141 12.1508 12.2579 12.279 12.148 12.4435C12.0381 12.6079 11.9795 12.8012 11.9795 12.999C11.9795 13.2642 12.0848 13.5186 12.2724 13.7061C12.4599 13.8937 12.7143 13.999 12.9795 13.999ZM17.9795 13.999C18.1773 13.999 18.3706 13.9404 18.5351 13.8305C18.6995 13.7206 18.8277 13.5644 18.9034 13.3817C18.9791 13.199 18.9989 12.9979 18.9603 12.8039C18.9217 12.61 18.8265 12.4318 18.6866 12.2919C18.5467 12.1521 18.3686 12.0568 18.1746 12.0182C17.9806 11.9797 17.7795 11.9995 17.5968 12.0751C17.4141 12.1508 17.2579 12.279 17.148 12.4435C17.0381 12.6079 16.9795 12.8012 16.9795 12.999C16.9795 13.2642 17.0848 13.5186 17.2724 13.7061C17.4599 13.8937 17.7143 13.999 17.9795 13.999ZM12.9795 17.999C13.1773 17.999 13.3706 17.9404 13.5351 17.8305C13.6995 17.7206 13.8277 17.5644 13.9034 17.3817C13.9791 17.199 13.9989 16.9979 13.9603 16.8039C13.9217 16.61 13.8265 16.4318 13.6866 16.2919C13.5467 16.1521 13.3686 16.0568 13.1746 16.0182C12.9806 15.9797 12.7795 15.9995 12.5968 16.0751C12.4141 16.1508 12.2579 16.279 12.148 16.4435C12.0381 16.6079 11.9795 16.8012 11.9795 16.999C11.9795 17.2642 12.0848 17.5186 12.2724 17.7061C12.4599 17.8937 12.7143 17.999 12.9795 17.999ZM17.9795 17.999C18.1773 17.999 18.3706 17.9404 18.5351 17.8305C18.6995 17.7206 18.8277 17.5644 18.9034 17.3817C18.9791 17.199 18.9989 16.9979 18.9603 16.8039C18.9217 16.61 18.8265 16.4318 18.6866 16.2919C18.5467 16.1521 18.3686 16.0568 18.1746 16.0182C17.9806 15.9797 17.7795 15.9995 17.5968 16.0751C17.4141 16.1508 17.2579 16.279 17.148 16.4435C17.0381 16.6079 16.9795 16.8012 16.9795 16.999C16.9795 17.2642 17.0848 17.5186 17.2724 17.7061C17.4599 17.8937 17.7143 17.999 17.9795 17.999ZM7.97949 13.999C8.17727 13.999 8.37061 13.9404 8.53506 13.8305C8.69951 13.7206 8.82768 13.5644 8.90337 13.3817C8.97906 13.199 8.99886 12.9979 8.96028 12.8039C8.92169 12.61 8.82645 12.4318 8.6866 12.2919C8.54675 12.1521 8.36856 12.0568 8.17458 12.0182C7.9806 11.9797 7.77953 11.9995 7.59681 12.0751C7.41408 12.1508 7.2579 12.279 7.14802 12.4435C7.03814 12.6079 6.97949 12.8012 6.97949 12.999C6.97949 13.2642 7.08485 13.5186 7.27239 13.7061C7.45992 13.8937 7.71428 13.999 7.97949 13.999ZM19.9795 3.99902H18.9795V2.99902C18.9795 2.73381 18.8741 2.47945 18.6866 2.29192C18.4991 2.10438 18.2447 1.99902 17.9795 1.99902C17.7143 1.99902 17.4599 2.10438 17.2724 2.29192C17.0848 2.47945 16.9795 2.73381 16.9795 2.99902V3.99902H8.97949V2.99902C8.97949 2.73381 8.87414 2.47945 8.6866 2.29192C8.49906 2.10438 8.24471 1.99902 7.97949 1.99902C7.71428 1.99902 7.45992 2.10438 7.27239 2.29192C7.08485 2.47945 6.97949 2.73381 6.97949 2.99902V3.99902H5.97949C5.18384 3.99902 4.42078 4.31509 3.85817 4.8777C3.29556 5.44031 2.97949 6.20337 2.97949 6.99902V18.999C2.97949 19.7947 3.29556 20.5577 3.85817 21.1203C4.42078 21.683 5.18384 21.999 5.97949 21.999H19.9795C20.7751 21.999 21.5382 21.683 22.1008 21.1203C22.6634 20.5577 22.9795 19.7947 22.9795 18.999V6.99902C22.9795 6.20337 22.6634 5.44031 22.1008 4.8777C21.5382 4.31509 20.7751 3.99902 19.9795 3.99902ZM20.9795 18.999C20.9795 19.2642 20.8741 19.5186 20.6866 19.7061C20.4991 19.8937 20.2447 19.999 19.9795 19.999H5.97949C5.71428 19.999 5.45992 19.8937 5.27239 19.7061C5.08485 19.5186 4.97949 19.2642 4.97949 18.999V9.99902H20.9795V18.999ZM20.9795 7.99902H4.97949V6.99902C4.97949 6.73381 5.08485 6.47945 5.27239 6.29192C5.45992 6.10438 5.71428 5.99902 5.97949 5.99902H19.9795C20.2447 5.99902 20.4991 6.10438 20.6866 6.29192C20.8741 6.47945 20.9795 6.73381 20.9795 6.99902V7.99902ZM7.97949 17.999C8.17727 17.999 8.37061 17.9404 8.53506 17.8305C8.69951 17.7206 8.82768 17.5644 8.90337 17.3817C8.97906 17.199 8.99886 16.9979 8.96028 16.8039C8.92169 16.61 8.82645 16.4318 8.6866 16.2919C8.54675 16.1521 8.36856 16.0568 8.17458 16.0182C7.9806 15.9797 7.77953 15.9995 7.59681 16.0751C7.41408 16.1508 7.2579 16.279 7.14802 16.4435C7.03814 16.6079 6.97949 16.8012 6.97949 16.999C6.97949 17.2642 7.08485 17.5186 7.27239 17.7061C7.45992 17.8937 7.71428 17.999 7.97949 17.999Z" fill="#175DA8"/>
</svg>
