<svg width="50" height="50" viewBox="0 0 50 50" fill="none" xmlns="http://www.w3.org/2000/svg">
<path d="M28 36.6667L34.6667 43.3333L48 30" stroke="#111111" stroke-width="2" stroke-linecap="round" stroke-linejoin="round"/>
<path d="M25.3334 22.6457C25.1251 22.6248 24.8751 22.6248 24.6459 22.6457C19.6876 22.479 15.7501 18.4165 15.7501 13.4165C15.7292 8.31234 19.8751 4.1665 24.9792 4.1665C30.0834 4.1665 34.2292 8.31234 34.2292 13.4165C34.2292 18.4165 30.2709 22.479 25.3334 22.6457Z" stroke="#111111" stroke-width="2" stroke-linecap="round" stroke-linejoin="round"/>
<path d="M24.9795 45.4377C21.1878 45.4377 17.417 44.4793 14.542 42.5627C9.50033 39.1877 9.50033 33.6877 14.542 30.3335C20.2712 26.5002 29.667 26.5002 35.3962 30.3335" stroke="#111111" stroke-width="2" stroke-linecap="round" stroke-linejoin="round"/>
</svg>
