<svg width="50" height="52" viewBox="0 0 50 52" fill="none" xmlns="http://www.w3.org/2000/svg">
<path d="M20.9997 23.9998C26.7526 23.9998 31.4163 19.3361 31.4163 13.5832C31.4163 7.8302 26.7526 3.1665 20.9997 3.1665C15.2467 3.1665 10.583 7.8302 10.583 13.5832C10.583 19.3361 15.2467 23.9998 20.9997 23.9998Z" stroke="#111111" stroke-width="2" stroke-linecap="round" stroke-linejoin="round"/>
<path d="M3.10449 44.8333C3.10449 36.7708 11.1254 30.25 21.0004 30.25" stroke="#111111" stroke-width="2" stroke-linecap="round" stroke-linejoin="round"/>
<path d="M36.3929 48.5358C41.4424 48.5358 45.5358 44.4424 45.5358 39.3929C45.5358 34.3434 41.4424 30.25 36.3929 30.25C31.3434 30.25 27.25 34.3434 27.25 39.3929C27.25 44.4424 31.3434 48.5358 36.3929 48.5358Z" stroke="#111111" stroke-width="2" stroke-linecap="round" stroke-linejoin="round"/>
<path d="M47.2497 50.2502L44.3926 47.3931" stroke="#111111" stroke-width="2" stroke-linecap="round" stroke-linejoin="round"/>
</svg>
