<svg width="41" height="40" viewBox="0 0 41 40" fill="none" xmlns="http://www.w3.org/2000/svg">
<path d="M28.6029 25.8325V28.3325C28.6029 29.3325 27.9362 29.9992 26.9362 29.9992C25.9362 29.9992 25.2695 29.3325 25.2695 28.3325V25.8325H15.2695V28.3325C15.2695 29.3325 14.6029 29.9992 13.6029 29.9992C12.6029 29.9992 11.9362 29.3325 11.9362 28.3325V25.8325H8.60286C7.43619 25.8325 6.26953 25.4992 5.26953 24.9992V31.6659C5.26953 34.4992 7.43619 36.6659 10.2695 36.6659H30.2695C33.1029 36.6659 35.2695 34.4992 35.2695 31.6659V24.9992C34.2695 25.4992 33.1029 25.8325 31.9362 25.8325H28.6029ZM35.2695 9.99919H28.6029V8.33252C28.6029 5.49919 26.4362 3.33252 23.6029 3.33252H16.9362C14.1029 3.33252 11.9362 5.49919 11.9362 8.33252V9.99919H5.26953C4.26953 9.99919 3.60286 10.6659 3.60286 11.6659V18.3325C3.60286 21.1659 5.76953 23.3325 8.60286 23.3325H31.9362C34.7695 23.3325 36.9362 21.1659 36.9362 18.3325V11.6659C36.9362 10.6659 36.2695 9.99919 35.2695 9.99919ZM25.2695 9.99919H15.2695V8.33252C15.2695 7.33252 15.9362 6.66585 16.9362 6.66585H23.6029C24.6029 6.66585 25.2695 7.33252 25.2695 8.33252V9.99919Z" fill="#111111"/>
</svg>
