<svg width="16" height="15" viewBox="0 0 16 15" fill="none" xmlns="http://www.w3.org/2000/svg">
<path d="M7.76953 12.5H3.39453C3.22877 12.5 3.0698 12.4342 2.95259 12.3169C2.83538 12.1997 2.76953 12.0408 2.76953 11.875V3.125C2.76953 2.95924 2.83538 2.80027 2.95259 2.68306C3.0698 2.56585 3.22877 2.5 3.39453 2.5H6.51953V4.375C6.51953 4.87228 6.71708 5.34919 7.06871 5.70083C7.42034 6.05246 7.89725 6.25 8.39453 6.25H10.2695V6.875C10.2695 7.04076 10.3354 7.19973 10.4526 7.31694C10.5698 7.43415 10.7288 7.5 10.8945 7.5C11.0603 7.5 11.2193 7.43415 11.3365 7.31694C11.4537 7.19973 11.5195 7.04076 11.5195 6.875V5.625C11.5195 5.625 11.5195 5.625 11.5195 5.5875C11.513 5.53008 11.5005 5.47352 11.482 5.41875V5.3625C11.452 5.29824 11.4119 5.23917 11.3633 5.1875V5.1875L7.61328 1.4375C7.56162 1.38889 7.50254 1.3488 7.43828 1.31875C7.41963 1.3161 7.40069 1.3161 7.38203 1.31875C7.31854 1.28234 7.24842 1.25897 7.17578 1.25H3.39453C2.89725 1.25 2.42034 1.44754 2.06871 1.79917C1.71708 2.15081 1.51953 2.62772 1.51953 3.125V11.875C1.51953 12.3723 1.71708 12.8492 2.06871 13.2008C2.42034 13.5525 2.89725 13.75 3.39453 13.75H7.76953C7.93529 13.75 8.09426 13.6842 8.21147 13.5669C8.32868 13.4497 8.39453 13.2908 8.39453 13.125C8.39453 12.9592 8.32868 12.8003 8.21147 12.6831C8.09426 12.5658 7.93529 12.5 7.76953 12.5ZM7.76953 3.38125L9.38828 5H8.39453C8.22877 5 8.0698 4.93415 7.95259 4.81694C7.83538 4.69973 7.76953 4.54076 7.76953 4.375V3.38125ZM4.64453 5C4.47877 5 4.3198 5.06585 4.20259 5.18306C4.08538 5.30027 4.01953 5.45924 4.01953 5.625C4.01953 5.79076 4.08538 5.94973 4.20259 6.06694C4.3198 6.18415 4.47877 6.25 4.64453 6.25H5.26953C5.43529 6.25 5.59426 6.18415 5.71147 6.06694C5.82868 5.94973 5.89453 5.79076 5.89453 5.625C5.89453 5.45924 5.82868 5.30027 5.71147 5.18306C5.59426 5.06585 5.43529 5 5.26953 5H4.64453ZM13.8383 12.6813L13.107 11.9562C13.3408 11.5483 13.4343 11.0749 13.3733 10.6087C13.3124 10.1425 13.1003 9.70916 12.7695 9.375V9.375C12.4652 9.05979 12.0729 8.84356 11.6439 8.75446C11.2149 8.66537 10.769 8.70754 10.3643 8.87549C9.95961 9.04344 9.61488 9.32938 9.37501 9.69606C9.13515 10.0627 9.01127 10.4932 9.01953 10.9312C9.01738 11.3082 9.11382 11.6792 9.29929 12.0075C9.48476 12.3357 9.75282 12.6097 10.0769 12.8024C10.4009 12.995 10.7697 13.0996 11.1467 13.1058C11.5236 13.112 11.8956 13.0195 12.2258 12.8375L12.9508 13.5687C13.0089 13.6273 13.078 13.6738 13.1542 13.7056C13.2303 13.7373 13.312 13.7536 13.3945 13.7536C13.477 13.7536 13.5587 13.7373 13.6349 13.7056C13.7111 13.6738 13.7802 13.6273 13.8383 13.5687C13.8969 13.5106 13.9434 13.4415 13.9751 13.3654C14.0068 13.2892 14.0232 13.2075 14.0232 13.125C14.0232 13.0425 14.0068 12.9608 13.9751 12.8846C13.9434 12.8085 13.8969 12.7394 13.8383 12.6813V12.6813ZM11.857 11.5875C11.6785 11.7554 11.4427 11.8488 11.1977 11.8488C10.9526 11.8488 10.7168 11.7554 10.5383 11.5875C10.3662 11.4124 10.2697 11.1768 10.2695 10.9312C10.2682 10.808 10.2919 10.6857 10.3392 10.5718C10.3865 10.458 10.4563 10.3549 10.5445 10.2688C10.7112 10.103 10.9346 10.0069 11.1695 10C11.2959 9.99223 11.4225 10.0107 11.5414 10.0541C11.6603 10.0976 11.7689 10.1652 11.8605 10.2526C11.952 10.3401 12.0245 10.4455 12.0734 10.5623C12.1223 10.679 12.1465 10.8047 12.1445 10.9312C12.1394 11.1794 12.036 11.4154 11.857 11.5875V11.5875ZM8.39453 7.5H4.64453C4.47877 7.5 4.3198 7.56585 4.20259 7.68306C4.08538 7.80027 4.01953 7.95924 4.01953 8.125C4.01953 8.29076 4.08538 8.44973 4.20259 8.56694C4.3198 8.68415 4.47877 8.75 4.64453 8.75H8.39453C8.56029 8.75 8.71926 8.68415 8.83647 8.56694C8.95368 8.44973 9.01953 8.29076 9.01953 8.125C9.01953 7.95924 8.95368 7.80027 8.83647 7.68306C8.71926 7.56585 8.56029 7.5 8.39453 7.5ZM7.14453 11.25C7.31029 11.25 7.46926 11.1842 7.58647 11.0669C7.70368 10.9497 7.76953 10.7908 7.76953 10.625C7.76953 10.4592 7.70368 10.3003 7.58647 10.1831C7.46926 10.0658 7.31029 10 7.14453 10H4.64453C4.47877 10 4.3198 10.0658 4.20259 10.1831C4.08538 10.3003 4.01953 10.4592 4.01953 10.625C4.01953 10.7908 4.08538 10.9497 4.20259 11.0669C4.3198 11.1842 4.47877 11.25 4.64453 11.25H7.14453Z" fill="black"/>
</svg>
