<svg width="14" height="14" viewBox="0 0 14 14" fill="none" xmlns="http://www.w3.org/2000/svg">
<path d="M6.97966 12.3325H2.31299C2.13618 12.3325 1.96661 12.2623 1.84158 12.1373C1.71656 12.0122 1.64632 11.8427 1.64632 11.6659V2.33252C1.64632 2.15571 1.71656 1.98614 1.84158 1.86112C1.96661 1.73609 2.13618 1.66585 2.31299 1.66585H5.64632V3.66585C5.64632 4.19629 5.85704 4.70499 6.23211 5.08007C6.60718 5.45514 7.11589 5.66585 7.64632 5.66585H9.64632V6.33252C9.64632 6.50933 9.71656 6.6789 9.84158 6.80392C9.96661 6.92895 10.1362 6.99919 10.313 6.99919C10.4898 6.99919 10.6594 6.92895 10.7844 6.80392C10.9094 6.6789 10.9797 6.50933 10.9797 6.33252V4.99919C10.9797 4.99919 10.9797 4.99919 10.9797 4.95919C10.9727 4.89794 10.9593 4.83761 10.9397 4.77919V4.71919C10.9076 4.65064 10.8648 4.58763 10.813 4.53252V4.53252L6.81299 0.53252C6.75788 0.480664 6.69487 0.437907 6.62632 0.405853C6.60642 0.403026 6.58622 0.403026 6.56632 0.405853C6.4986 0.367014 6.4238 0.342082 6.34632 0.33252H2.31299C1.78256 0.33252 1.27385 0.543233 0.898775 0.918306C0.523702 1.29338 0.312988 1.80209 0.312988 2.33252V11.6659C0.312988 12.1963 0.523702 12.705 0.898775 13.0801C1.27385 13.4551 1.78256 13.6659 2.31299 13.6659H6.97966C7.15647 13.6659 7.32604 13.5956 7.45106 13.4706C7.57608 13.3456 7.64632 13.176 7.64632 12.9992C7.64632 12.8224 7.57608 12.6528 7.45106 12.5278C7.32604 12.4028 7.15647 12.3325 6.97966 12.3325ZM6.97966 2.60585L8.70632 4.33252H7.64632C7.46951 4.33252 7.29994 4.26228 7.17492 4.13726C7.04989 4.01223 6.97966 3.84266 6.97966 3.66585V2.60585ZM3.64632 4.33252C3.46951 4.33252 3.29994 4.40276 3.17492 4.52778C3.04989 4.65281 2.97966 4.82238 2.97966 4.99919C2.97966 5.176 3.04989 5.34557 3.17492 5.47059C3.29994 5.59561 3.46951 5.66585 3.64632 5.66585H4.31299C4.4898 5.66585 4.65937 5.59561 4.78439 5.47059C4.90942 5.34557 4.97966 5.176 4.97966 4.99919C4.97966 4.82238 4.90942 4.65281 4.78439 4.52778C4.65937 4.40276 4.4898 4.33252 4.31299 4.33252H3.64632ZM13.453 12.5259L12.673 11.7525C12.9223 11.3174 13.0221 10.8125 12.9571 10.3152C12.892 9.81789 12.6658 9.35562 12.313 8.99919V8.99919C11.9883 8.66297 11.57 8.43232 11.1123 8.33728C10.6547 8.24224 10.1791 8.28723 9.74742 8.46638C9.31574 8.64552 8.94802 8.95053 8.69217 9.34165C8.43631 9.73278 8.30418 10.1919 8.31299 10.6592C8.31069 11.0613 8.41357 11.457 8.6114 11.8071C8.80924 12.1572 9.09516 12.4495 9.44081 12.6551C9.78647 12.8606 10.1798 12.9721 10.5819 12.9787C10.984 12.9853 11.3808 12.8866 11.733 12.6925L12.5063 13.4725C12.5683 13.535 12.642 13.5846 12.7233 13.6184C12.8045 13.6523 12.8916 13.6697 12.9797 13.6697C13.0677 13.6697 13.1548 13.6523 13.236 13.6184C13.3173 13.5846 13.391 13.535 13.453 13.4725C13.5155 13.4105 13.5651 13.3368 13.5989 13.2556C13.6328 13.1743 13.6502 13.0872 13.6502 12.9992C13.6502 12.9112 13.6328 12.824 13.5989 12.7428C13.5651 12.6616 13.5155 12.5878 13.453 12.5259V12.5259ZM11.3397 11.3592C11.1492 11.5383 10.8977 11.6379 10.6363 11.6379C10.3749 11.6379 10.1234 11.5383 9.93299 11.3592C9.74947 11.1724 9.64654 10.9211 9.64632 10.6592C9.64494 10.5277 9.67022 10.3973 9.72064 10.2758C9.77105 10.1544 9.84556 10.0444 9.93966 9.95252C10.1174 9.77575 10.3558 9.67325 10.6063 9.66585C10.7411 9.65757 10.8761 9.67723 11.003 9.7236C11.1298 9.76997 11.2457 9.84206 11.3433 9.93533C11.441 10.0286 11.5183 10.141 11.5704 10.2656C11.6226 10.3902 11.6484 10.5242 11.6463 10.6592C11.6408 10.9239 11.5305 11.1757 11.3397 11.3592V11.3592ZM7.64632 6.99919H3.64632C3.46951 6.99919 3.29994 7.06942 3.17492 7.19445C3.04989 7.31947 2.97966 7.48904 2.97966 7.66585C2.97966 7.84266 3.04989 8.01223 3.17492 8.13726C3.29994 8.26228 3.46951 8.33252 3.64632 8.33252H7.64632C7.82313 8.33252 7.9927 8.26228 8.11773 8.13726C8.24275 8.01223 8.31299 7.84266 8.31299 7.66585C8.31299 7.48904 8.24275 7.31947 8.11773 7.19445C7.9927 7.06942 7.82313 6.99919 7.64632 6.99919ZM6.31299 10.9992C6.4898 10.9992 6.65937 10.9289 6.78439 10.8039C6.90942 10.6789 6.97966 10.5093 6.97966 10.3325C6.97966 10.1557 6.90942 9.98614 6.78439 9.86111C6.65937 9.73609 6.4898 9.66585 6.31299 9.66585H3.64632C3.46951 9.66585 3.29994 9.73609 3.17492 9.86111C3.04989 9.98614 2.97966 10.1557 2.97966 10.3325C2.97966 10.5093 3.04989 10.6789 3.17492 10.8039C3.29994 10.9289 3.46951 10.9992 3.64632 10.9992H6.31299Z" fill="#175DA8"/>
</svg>
