<svg width="41" height="40" viewBox="0 0 41 40" fill="none" xmlns="http://www.w3.org/2000/svg">
<path d="M31.9362 9.99902H26.9362V8.33236C26.9362 6.49902 25.4362 4.99902 23.6029 4.99902H16.9362C15.1029 4.99902 13.6029 6.49902 13.6029 8.33236V9.99902H8.60287C5.76953 9.99902 3.60287 12.1657 3.60287 14.999V29.999C3.60287 32.8324 5.76953 34.999 8.60287 34.999H31.9362C34.7695 34.999 36.9362 32.8324 36.9362 29.999V14.999C36.9362 12.1657 34.7695 9.99902 31.9362 9.99902ZM16.9362 8.33236H23.6029V9.99902H16.9362V8.33236ZM33.6029 29.999C33.6029 30.999 32.9362 31.6657 31.9362 31.6657H8.60287C7.60287 31.6657 6.9362 30.999 6.9362 29.999V20.6657L14.7695 23.3324C14.9362 23.3324 15.1029 23.3324 15.2695 23.3324H25.2695C25.4362 23.3324 25.6029 23.3324 25.7695 23.1657L33.6029 20.499V29.999Z" fill="#111111"/>
</svg>
