<svg width="18" height="18" viewBox="0 0 18 18" fill="none" xmlns="http://www.w3.org/2000/svg">
<path d="M8.815 0C7.07156 0 5.36727 0.516991 3.91765 1.4856C2.46803 2.4542 1.33819 3.83091 0.671006 5.44165C0.00381941 7.05238 -0.170747 8.82478 0.169382 10.5347C0.50951 12.2447 1.34906 13.8153 2.58186 15.0481C3.81466 16.2809 5.38534 17.1205 7.09528 17.4606C8.80523 17.8008 10.5776 17.6262 12.1884 16.959C13.7991 16.2918 15.1758 15.162 16.1444 13.7124C17.113 12.2627 17.63 10.5584 17.63 8.815C17.63 6.47712 16.7013 4.23499 15.0482 2.58185C13.395 0.928721 11.1529 0 8.815 0ZM8.412 8.537C8.36141 8.62122 8.28988 8.69091 8.20436 8.73927C8.11884 8.78764 8.02225 8.81304 7.924 8.813H7.914C7.76386 8.81371 7.62008 8.87374 7.514 8.98L7.314 9.18C7.26124 9.23319 7.23164 9.30508 7.23164 9.38C7.23164 9.45492 7.26124 9.52681 7.314 9.58L7.514 9.78C7.62027 9.88608 7.68029 10.0299 7.681 10.18V10.513C7.681 10.6639 7.62106 10.8086 7.51435 10.9153C7.40764 11.0221 7.26291 11.082 7.112 11.082H6.892C6.78625 11.0821 6.68257 11.0526 6.59264 10.997C6.50271 10.9413 6.43011 10.8617 6.383 10.767L5.583 9.159C5.5629 9.11871 5.53351 9.08377 5.49725 9.05707C5.46099 9.03038 5.4189 9.01268 5.37446 9.00546C5.33001 8.99823 5.28449 9.00167 5.24164 9.0155C5.19879 9.02933 5.15984 9.05315 5.128 9.085L4.436 9.777C4.32993 9.88326 4.18615 9.94329 4.036 9.944H1.806C1.60921 8.74212 1.72489 7.50983 2.14191 6.36557C2.55893 5.22131 3.26328 4.20356 4.18726 3.41015C5.11124 2.61673 6.22377 2.07433 7.41792 1.83508C8.61207 1.59583 9.84769 1.66778 11.006 2.044L9.223 3.424C9.18147 3.45159 9.14793 3.48964 9.12576 3.5343C9.10359 3.57897 9.09358 3.62869 9.09672 3.67845C9.09986 3.72822 9.11605 3.77628 9.14366 3.8178C9.17127 3.85933 9.20933 3.89285 9.254 3.915L9.639 4.107C9.73343 4.15434 9.81281 4.22702 9.86827 4.31692C9.92373 4.40682 9.95307 4.51037 9.953 4.616V7.393C9.953 7.46832 9.92308 7.54056 9.86982 7.59382C9.81656 7.64708 9.74432 7.677 9.669 7.677H9.56C9.50726 7.677 9.45557 7.66231 9.4107 7.63458C9.36584 7.60685 9.32959 7.56717 9.306 7.52C9.29331 7.49485 9.27412 7.47355 9.25043 7.4583C9.22673 7.44306 9.19939 7.43443 9.17124 7.43331C9.14309 7.43219 9.11515 7.43861 9.09031 7.45192C9.06548 7.46523 9.04466 7.48494 9.03 7.509L8.412 8.537ZM14.502 12.454C14.5013 12.6041 14.4413 12.7479 14.335 12.854L13.995 13.194C13.8889 13.3003 13.7451 13.3603 13.595 13.361H13.056C12.9059 13.3603 12.7621 13.3003 12.656 13.194L12.194 12.732C12.0782 12.6164 11.9345 12.5327 11.7768 12.4889C11.6191 12.4451 11.4529 12.4427 11.294 12.482L10.538 12.671C10.4929 12.6823 10.4465 12.688 10.4 12.688H10.032C9.88186 12.6873 9.73808 12.6273 9.632 12.521L9.2 12.102C9.1471 12.0488 9.11728 11.977 9.117 11.902V11.537C9.11711 11.4802 9.13422 11.4247 9.16611 11.3776C9.19801 11.3306 9.24324 11.2941 9.296 11.273L10.696 10.714C10.7667 10.6861 10.8339 10.6498 10.896 10.606L11.739 10.006C11.7871 9.97157 11.8448 9.95304 11.904 9.953H12.334C12.3902 9.95285 12.4453 9.9694 12.4921 10.0006C12.5389 10.0317 12.5754 10.0761 12.597 10.128L12.787 10.585C12.7978 10.6108 12.8161 10.6328 12.8394 10.6483C12.8627 10.6638 12.89 10.672 12.918 10.672H13.053C13.0834 10.6721 13.113 10.6624 13.1375 10.6444C13.162 10.6264 13.18 10.601 13.189 10.572L13.338 10.058C13.347 10.029 13.3651 10.0036 13.3895 9.9856C13.414 9.9676 13.4436 9.95792 13.474 9.958H13.689C13.7267 9.958 13.7628 9.97296 13.7894 9.99959C13.816 10.0262 13.831 10.0623 13.831 10.1V10.56C13.8313 10.635 13.8611 10.7068 13.914 10.76L14.337 11.183C14.4433 11.2891 14.5033 11.4329 14.504 11.583V12.457L14.502 12.454Z" fill="#4EA647"/>
</svg>
