<svg width="14" height="13" viewBox="0 0 14 13" fill="none" xmlns="http://www.w3.org/2000/svg">
<path d="M12.8595 5.05109L8.26689 5.07301L8.2881 0.479645C8.28824 0.43587 8.27972 0.392499 8.26303 0.35203C8.24634 0.31156 8.22181 0.27479 8.19086 0.243836C8.15991 0.212882 8.12314 0.188356 8.08267 0.171668C8.0422 0.154979 7.99883 0.146459 7.95505 0.146598L5.78494 0.157204C5.72064 0.157691 5.65781 0.17651 5.60382 0.211455C5.54984 0.246399 5.50695 0.296018 5.48018 0.354487C5.46002 0.397929 5.44941 0.445189 5.44907 0.49308L5.42785 5.08645L0.833779 5.10837C0.785885 5.10868 0.738619 5.11929 0.695186 5.13948C0.636718 5.16625 0.587099 5.20914 0.552154 5.26312C0.51721 5.31711 0.49839 5.37994 0.497903 5.44424L0.487297 7.61435C0.487158 7.65813 0.495679 7.7015 0.512367 7.74197C0.529055 7.78244 0.553582 7.81921 0.584535 7.85016C0.615489 7.88111 0.652259 7.90564 0.692729 7.92233C0.733198 7.93902 0.776569 7.94754 0.820344 7.9474L5.41442 7.92548L5.39179 12.5188C5.39165 12.5626 5.40017 12.606 5.41686 12.6465C5.43355 12.6869 5.45807 12.7237 5.48903 12.7547C5.51998 12.7856 5.55675 12.8101 5.59722 12.8268C5.63769 12.8435 5.68106 12.852 5.72484 12.8519L7.89495 12.8413C7.95925 12.8408 8.02208 12.822 8.07606 12.787C8.13005 12.7521 8.17294 12.7025 8.19971 12.644C8.21987 12.6006 8.23048 12.5533 8.23082 12.5054L8.25274 7.91134L12.8461 7.88871C12.894 7.88836 12.9413 7.87776 12.9847 7.8576C13.0432 7.83083 13.0928 7.78793 13.1277 7.73395C13.1627 7.67997 13.1815 7.61714 13.182 7.55283L13.1926 5.38272C13.1927 5.33895 13.1842 5.29558 13.1675 5.25511C13.1508 5.21464 13.1263 5.17787 13.0954 5.14691C13.0644 5.11596 13.0276 5.09143 12.9872 5.07475C12.9467 5.05806 12.9033 5.04954 12.8595 5.04968L12.8595 5.05109Z" fill="#9E9E9E"/>
</svg>
