<svg width="11" height="11" viewBox="0 0 11 11" fill="none" xmlns="http://www.w3.org/2000/svg">
<path d="M10.1775 8.5327L7.14442 5.49949L10.1775 2.46535C10.2064 2.43639 10.2293 2.40196 10.2449 2.36402C10.2606 2.32609 10.2686 2.28542 10.2686 2.24433C10.2686 2.20325 10.2606 2.16257 10.2449 2.12464C10.2293 2.08671 10.2064 2.05228 10.1775 2.02332L8.74417 0.590242C8.70158 0.547892 8.64791 0.518686 8.58946 0.506052C8.53101 0.493418 8.4702 0.497881 8.41418 0.518917C8.37237 0.534368 8.33434 0.55869 8.30263 0.590242L5.26953 3.62439L2.2355 0.590242C2.20381 0.558667 2.16577 0.534342 2.12396 0.518917C2.06793 0.497881 2.00712 0.493418 1.94867 0.506052C1.89022 0.518686 1.83655 0.547892 1.79397 0.590242L0.360611 2.02332C0.331747 2.05228 0.308841 2.08671 0.29321 2.12464C0.277578 2.16257 0.269531 2.20325 0.269531 2.24433C0.269531 2.28542 0.277578 2.32609 0.29321 2.36402C0.308841 2.40196 0.331747 2.43639 0.360611 2.46535L3.39464 5.49949L0.360611 8.5327C0.331747 8.56166 0.308841 8.59609 0.29321 8.63402C0.277578 8.67195 0.269531 8.71263 0.269531 8.75371C0.269531 8.7948 0.277578 8.83547 0.29321 8.8734C0.308841 8.91133 0.331747 8.94577 0.360611 8.97473L1.79397 10.4078C1.83655 10.4502 1.89022 10.4794 1.94867 10.492C2.00712 10.5046 2.06793 10.5002 2.12396 10.4791C2.16576 10.4637 2.2038 10.4394 2.2355 10.4078L5.26953 7.37366L8.30356 10.4069C8.33527 10.4384 8.3733 10.4627 8.41511 10.4782C8.47113 10.4992 8.53194 10.5037 8.59039 10.4911C8.64884 10.4784 8.70251 10.4492 8.7451 10.4069L10.1785 8.97379C10.2073 8.94483 10.2302 8.9104 10.2459 8.87247C10.2615 8.83453 10.2695 8.79386 10.2695 8.75277C10.2695 8.71169 10.2615 8.67101 10.2459 8.63308C10.2302 8.59515 10.2073 8.56072 10.1785 8.53176L10.1775 8.5327Z" fill="#9E9E9E"/>
</svg>
