<svg width="10" height="13" viewBox="0 0 10 13" fill="none" xmlns="http://www.w3.org/2000/svg">
<path d="M9.241 1.82909C9.33419 1.83124 9.42443 1.79634 9.49192 1.73203C9.55941 1.66773 9.59864 1.57928 9.601 1.48609V0.343094C9.59864 0.249905 9.55941 0.161457 9.49192 0.0971541C9.42443 0.0328513 9.33419 -0.00205484 9.241 9.36139e-05H0.36C0.266806 -0.00205484 0.176565 0.0328513 0.109076 0.0971541C0.0415859 0.161457 0.00235867 0.249905 0 0.343094L0 1.62209C0.00235867 1.71528 0.0415859 1.80373 0.109076 1.86803C0.176565 1.93234 0.266806 1.96724 0.36 1.96509H2.919C3.26352 1.94306 3.60842 2.00205 3.92604 2.13733C4.24366 2.27261 4.52517 2.48041 4.748 2.74409H0.36C0.266975 2.74194 0.176882 2.77671 0.109421 2.8408C0.0419595 2.90489 0.00261859 2.99308 0 3.08609L0 4.22909C0.00235867 4.32228 0.0415859 4.41073 0.109076 4.47503C0.176565 4.53934 0.266806 4.57424 0.36 4.57209H5.123C5.03109 5.08382 4.74845 5.54162 4.33214 5.85306C3.91583 6.16451 3.39686 6.3064 2.88 6.25009H0.36C0.267311 6.24793 0.177512 6.28243 0.110107 6.34609C0.0427025 6.40975 0.00313555 6.49743 0 6.59009L0 8.10509C0.000279879 8.15293 0.0107733 8.20016 0.0307783 8.24362C0.0507832 8.28708 0.0798384 8.32577 0.116 8.35709L5.068 12.7101C5.13562 12.769 5.22233 12.8013 5.312 12.8011H7.789C7.85945 12.8046 7.92926 12.7862 7.9888 12.7483C8.04834 12.7105 8.09469 12.6552 8.12145 12.5899C8.14822 12.5246 8.15408 12.4527 8.13824 12.3839C8.1224 12.3152 8.08563 12.2531 8.033 12.2061L3.506 8.22609C4.53316 8.26014 5.53459 7.90086 6.30584 7.2216C7.07709 6.54234 7.56001 5.59433 7.656 4.57109H9.241C9.33419 4.57324 9.42443 4.53834 9.49192 4.47403C9.55941 4.40973 9.59864 4.32128 9.601 4.22809V3.08609C9.59864 2.9929 9.55941 2.90446 9.49192 2.84015C9.42443 2.77585 9.33419 2.74095 9.241 2.74309H7.48C7.37834 2.42086 7.23442 2.11351 7.052 1.82909H9.241Z" fill="#4EA647"/>
</svg>
