<svg width="24" height="24" viewBox="0 0 24 24" fill="none" xmlns="http://www.w3.org/2000/svg">
<path d="M20.4599 9.62884C20.3195 8.16776 19.8031 6.76793 18.9611 5.56566C18.119 4.3634 16.98 3.39967 15.6549 2.76834C14.3298 2.137 12.8638 1.85956 11.3996 1.96305C9.93543 2.06653 8.52301 2.5474 7.29988 3.35884C6.24908 4.06149 5.36693 4.98814 4.71682 6.07223C4.06672 7.15633 3.66478 8.37095 3.53988 9.62884C3.41736 10.8785 3.57455 12.1398 4.00005 13.3211C4.42555 14.5025 5.10868 15.5743 5.99988 16.4588L11.2999 21.7688C11.3928 21.8626 11.5034 21.937 11.6253 21.9877C11.7472 22.0385 11.8779 22.0646 12.0099 22.0646C12.1419 22.0646 12.2726 22.0385 12.3945 21.9877C12.5163 21.937 12.6269 21.8626 12.7199 21.7688L17.9999 16.4588C18.8911 15.5743 19.5742 14.5025 19.9997 13.3211C20.4252 12.1398 20.5824 10.8785 20.4599 9.62884ZM16.5999 15.0488L11.9999 19.6488L7.39988 15.0488C6.72197 14.3709 6.20268 13.5512 5.87935 12.6486C5.55601 11.746 5.43667 10.783 5.52988 9.82884C5.6237 8.85995 5.93164 7.924 6.43145 7.08869C6.93126 6.25337 7.61044 5.53955 8.41988 4.99884C9.48083 4.29408 10.7262 3.91814 11.9999 3.91814C13.2736 3.91814 14.5189 4.29408 15.5799 4.99884C16.3869 5.53746 17.0646 6.24813 17.5642 7.07978C18.0639 7.91144 18.3732 8.84345 18.4699 9.80884C18.5661 10.7663 18.4483 11.7331 18.1249 12.6394C17.8014 13.5457 17.2805 14.3687 16.5999 15.0488ZM11.9999 5.99884C11.1099 5.99884 10.2398 6.26276 9.49982 6.75723C8.75979 7.2517 8.18302 7.9545 7.84242 8.77677C7.50183 9.59904 7.41271 10.5038 7.58635 11.3768C7.75998 12.2497 8.18856 13.0515 8.8179 13.6808C9.44724 14.3102 10.2491 14.7387 11.122 14.9124C11.9949 15.086 12.8997 14.9969 13.722 14.6563C14.5442 14.3157 15.247 13.7389 15.7415 12.9989C16.236 12.2589 16.4999 11.3889 16.4999 10.4988C16.4972 9.30618 16.0223 8.16312 15.1789 7.31978C14.3356 6.47644 13.1925 6.00149 11.9999 5.99884ZM11.9999 12.9988C11.5054 12.9988 11.0221 12.8522 10.611 12.5775C10.1998 12.3028 9.8794 11.9124 9.69018 11.4556C9.50096 10.9987 9.45145 10.4961 9.54792 10.0111C9.64438 9.52617 9.88248 9.08071 10.2321 8.73108C10.5817 8.38145 11.0272 8.14334 11.5122 8.04688C11.9971 7.95042 12.4998 7.99993 12.9566 8.18915C13.4134 8.37836 13.8039 8.6988 14.0786 9.10992C14.3533 9.52104 14.4999 10.0044 14.4999 10.4988C14.4999 11.1619 14.2365 11.7978 13.7676 12.2666C13.2988 12.7355 12.6629 12.9988 11.9999 12.9988Z" fill="#9E9E9E"/>
</svg>
