<svg width="30" height="24" viewBox="0 0 30 24" fill="none" xmlns="http://www.w3.org/2000/svg">
<path d="M9.29649 2.34494H18.3241C18.4381 2.34494 18.5474 2.29179 18.6279 2.19717C18.7085 2.10256 18.7538 1.97424 18.7538 1.84044C18.7538 1.70664 18.7085 1.57832 18.6279 1.4837C18.5474 1.38909 18.4381 1.33594 18.3241 1.33594H9.29649C9.18253 1.33594 9.07325 1.38909 8.99267 1.4837C8.91209 1.57832 8.86682 1.70664 8.86682 1.84044C8.86682 1.97424 8.91209 2.10256 8.99267 2.19717C9.07325 2.29179 9.18253 2.34494 9.29649 2.34494Z" fill="#175DA8"/>
<path d="M1.22685 7.27509H10.2545C10.3683 7.27509 10.4775 7.22199 10.558 7.12747C10.6385 7.03295 10.6837 6.90476 10.6837 6.77109C10.6837 6.63742 10.6385 6.50922 10.558 6.4147C10.4775 6.32019 10.3683 6.26709 10.2545 6.26709H1.22685C1.113 6.26709 1.00383 6.32019 0.923328 6.4147C0.842831 6.50922 0.797607 6.63742 0.797607 6.77109C0.797607 6.90476 0.842831 7.03295 0.923328 7.12747C1.00383 7.22199 1.113 7.27509 1.22685 7.27509Z" fill="#175DA8"/>
<path d="M3.64716 12.4631C3.64716 12.5957 3.69203 12.7229 3.77189 12.8167C3.85175 12.9104 3.96006 12.9631 4.07299 12.9631H13.1006C13.2146 12.9631 13.3239 12.91 13.4044 12.8153C13.485 12.7207 13.5303 12.5924 13.5303 12.4586C13.5303 12.3248 13.485 12.1965 13.4044 12.1019C13.3239 12.0073 13.2146 11.9541 13.1006 11.9541H4.07299C4.01642 11.9541 3.96042 11.9673 3.90825 11.993C3.85608 12.0187 3.80879 12.0563 3.76914 12.1037C3.7295 12.1511 3.6983 12.2073 3.67735 12.269C3.65641 12.3307 3.64615 12.3967 3.64716 12.4631Z" fill="#175DA8"/>
<path d="M8.81256 18.3242H0.698769C0.584928 18.3242 0.47575 18.3773 0.395252 18.4718C0.314754 18.5664 0.269531 18.6945 0.269531 18.8282C0.269531 18.9619 0.314754 19.0901 0.395252 19.1846C0.47575 19.2791 0.584928 19.3322 0.698769 19.3322H8.80915C8.92299 19.3322 9.03217 19.2791 9.11267 19.1846C9.19316 19.0901 9.23839 18.9619 9.23839 18.8282C9.23839 18.6945 9.19316 18.5664 9.11267 18.4718C9.03217 18.3773 8.92299 18.3242 8.80915 18.3242H8.81256Z" fill="#175DA8"/>
<path d="M23.4059 5.50702C23.8698 5.50682 24.3232 5.34514 24.7088 5.04241C25.0944 4.73967 25.3949 4.30948 25.5723 3.80624C25.7496 3.30299 25.796 2.74929 25.7054 2.21514C25.6148 1.68098 25.3913 1.19035 25.0633 0.805301C24.7352 0.420247 24.3173 0.158051 23.8623 0.051868C23.4074 -0.0543147 22.9358 0.000285715 22.5073 0.208759C22.0787 0.417232 21.7125 0.770216 21.4548 1.22309C21.1971 1.67596 21.0596 2.20838 21.0596 2.75302C21.0596 3.11477 21.1203 3.47297 21.2382 3.80717C21.3561 4.14137 21.529 4.445 21.7469 4.70075C21.9648 4.95649 22.2234 5.15934 22.5081 5.29768C22.7927 5.43602 23.0978 5.50715 23.4059 5.50702Z" fill="#175DA8"/>
<path d="M27.2639 4.71296C25.9166 6.92796 24.1128 7.18496 22.1727 5.83196C22.0407 5.73996 21.4547 5.36097 21.321 5.26997C18.1988 3.09397 15.08 3.94697 12.9892 7.38597C12.1001 8.84897 14.156 10.235 15.0332 8.78596C15.4199 8.00378 16.0261 7.40373 16.7481 7.08851C17.47 6.77329 18.2629 6.76249 18.9909 7.05796C18.2244 8.62596 17.549 10.185 16.5994 12.399C15.6498 14.613 13.5538 16.382 11.5397 14.999C11.4027 14.8918 11.2489 14.818 11.0873 14.7818C10.9256 14.7455 10.7595 14.7477 10.5985 14.788C10.4376 14.8283 10.2852 14.9061 10.1502 15.0167C10.0153 15.1272 9.90058 15.2684 9.81282 15.4318C9.72506 15.5953 9.66605 15.7777 9.63926 15.9683C9.61246 16.159 9.61844 16.354 9.65683 16.5418C9.69521 16.7297 9.76522 16.9067 9.86275 17.0623C9.96028 17.2179 10.0833 17.3491 10.2247 17.448C11.4602 18.2801 12.9092 18.5638 14.3079 18.2472C15.7065 17.9306 16.9618 17.0348 17.8454 15.723C17.9044 15.7619 17.9659 15.7953 18.0293 15.823C19.3387 16.464 20.5654 17.317 21.6736 18.357C22.2101 18.876 23.1333 21.52 23.681 22.849C23.821 23.1698 24.0617 23.4142 24.3522 23.5307C24.6427 23.6472 24.9604 23.6268 25.2384 23.4737C25.5163 23.3205 25.7328 23.0467 25.8421 22.7099C25.9515 22.373 25.9452 21.9995 25.8246 21.668C25.2037 20.161 24.1613 17.152 23.348 16.391C22.413 15.4914 21.4117 14.6913 20.3561 14C21.0828 12.3473 21.8425 10.7163 22.6351 9.10696C25.1739 10.02 27.5867 8.94396 29.3045 6.11796C30.2021 4.65396 28.1437 3.26296 27.2639 4.71296Z" fill="#175DA8"/>
</svg>
