<svg width="24" height="24" viewBox="0 0 24 24" fill="none" xmlns="http://www.w3.org/2000/svg">
<path d="M21 5.99902H17V4.99902C17 4.20337 16.6839 3.44031 16.1213 2.8777C15.5587 2.31509 14.7956 1.99902 14 1.99902H10C9.20435 1.99902 8.44129 2.31509 7.87868 2.8777C7.31607 3.44031 7 4.20337 7 4.99902V5.99902H3C2.73478 5.99902 2.48043 6.10438 2.29289 6.29192C2.10536 6.47945 2 6.73381 2 6.99902V10.999C2.00225 11.4184 2.09241 11.8327 2.26465 12.215C2.4369 12.5974 2.6874 12.9394 3 13.219V18.999C3 19.7947 3.31607 20.5577 3.87868 21.1203C4.44129 21.683 5.20435 21.999 6 21.999H18C18.7956 21.999 19.5587 21.683 20.1213 21.1203C20.6839 20.5577 21 19.7947 21 18.999V13.219C21.3126 12.9394 21.5631 12.5974 21.7353 12.215C21.9076 11.8327 21.9977 11.4184 22 10.999V6.99902C22 6.73381 21.8946 6.47945 21.7071 6.29192C21.5196 6.10438 21.2652 5.99902 21 5.99902ZM9 4.99902C9 4.73381 9.10536 4.47945 9.29289 4.29192C9.48043 4.10438 9.73478 3.99902 10 3.99902H14C14.2652 3.99902 14.5196 4.10438 14.7071 4.29192C14.8946 4.47945 15 4.73381 15 4.99902V5.99902H9V4.99902ZM19 18.999C19 19.2642 18.8946 19.5186 18.7071 19.7061C18.5196 19.8937 18.2652 19.999 18 19.999H6C5.73478 19.999 5.48043 19.8937 5.29289 19.7061C5.10536 19.5186 5 19.2642 5 18.999V13.999H7V14.999C7 15.2642 7.10536 15.5186 7.29289 15.7061C7.48043 15.8937 7.73478 15.999 8 15.999C8.26522 15.999 8.51957 15.8937 8.70711 15.7061C8.89464 15.5186 9 15.2642 9 14.999V13.999H15V14.999C15 15.2642 15.1054 15.5186 15.2929 15.7061C15.4804 15.8937 15.7348 15.999 16 15.999C16.2652 15.999 16.5196 15.8937 16.7071 15.7061C16.8946 15.5186 17 15.2642 17 14.999V13.999H19V18.999ZM20 10.999C20 11.2642 19.8946 11.5186 19.7071 11.7061C19.5196 11.8937 19.2652 11.999 19 11.999H17V10.999C17 10.7338 16.8946 10.4795 16.7071 10.2919C16.5196 10.1044 16.2652 9.99902 16 9.99902C15.7348 9.99902 15.4804 10.1044 15.2929 10.2919C15.1054 10.4795 15 10.7338 15 10.999V11.999H9V10.999C9 10.7338 8.89464 10.4795 8.70711 10.2919C8.51957 10.1044 8.26522 9.99902 8 9.99902C7.73478 9.99902 7.48043 10.1044 7.29289 10.2919C7.10536 10.4795 7 10.7338 7 10.999V11.999H5C4.73478 11.999 4.48043 11.8937 4.29289 11.7061C4.10536 11.5186 4 11.2642 4 10.999V7.99902H20V10.999Z" fill="#6F6F6F"/>
</svg>
