<svg width="50" height="50" viewBox="0 0 50 50" fill="none" xmlns="http://www.w3.org/2000/svg">
<path d="M19.0833 22.6457C18.875 22.6248 18.625 22.6248 18.3958 22.6457C13.4375 22.479 9.5 18.4165 9.5 13.4165C9.5 8.31234 13.625 4.1665 18.75 4.1665C23.8542 4.1665 28 8.31234 28 13.4165C27.9792 18.4165 24.0417 22.479 19.0833 22.6457Z" stroke="#111111" stroke-width="2" stroke-linecap="round" stroke-linejoin="round"/>
<path d="M34.1878 8.3335C38.2295 8.3335 41.4795 11.6043 41.4795 15.6252C41.4795 19.5627 38.3545 22.771 34.4587 22.9168C34.292 22.896 34.1045 22.896 33.917 22.9168" stroke="#111111" stroke-width="2" stroke-linecap="round" stroke-linejoin="round"/>
<path d="M8.66699 30.3335C3.62533 33.7085 3.62533 39.2085 8.66699 42.5627C14.3962 46.396 23.792 46.396 29.5212 42.5627C34.5628 39.1877 34.5628 33.6877 29.5212 30.3335C23.8128 26.521 14.417 26.521 8.66699 30.3335Z" stroke="#111111" stroke-width="2" stroke-linecap="round" stroke-linejoin="round"/>
<path d="M38.208 41.6665C39.708 41.354 41.1247 40.7498 42.2913 39.854C45.5413 37.4165 45.5413 33.3957 42.2913 30.9582C41.1455 30.0832 39.7497 29.4998 38.2705 29.1665" stroke="#111111" stroke-width="2" stroke-linecap="round" stroke-linejoin="round"/>
</svg>
