<svg width="20" height="21" viewBox="0 0 20 21" fill="none" xmlns="http://www.w3.org/2000/svg">
<g clip-path="url(#clip0_1_19063)">
<path d="M14.1665 3.35247C14.3854 3.1336 14.6452 2.95998 14.9312 2.84153C15.2171 2.72308 15.5236 2.66211 15.8332 2.66211C16.1427 2.66211 16.4492 2.72308 16.7352 2.84153C17.0211 2.95998 17.281 3.1336 17.4998 3.35247C17.7187 3.57134 17.8923 3.83117 18.0108 4.11714C18.1292 4.40311 18.1902 4.7096 18.1902 5.01913C18.1902 5.32866 18.1292 5.63516 18.0108 5.92113C17.8923 6.20709 17.7187 6.46693 17.4998 6.6858L6.24984 17.9358L1.6665 19.1858L2.9165 14.6025L14.1665 3.35247Z" stroke="#175DA8" stroke-width="2" stroke-linecap="round" stroke-linejoin="round"/>
</g>
<defs>
<clipPath id="clip0_1_19063">
<rect width="20" height="20" fill="white" transform="translate(0 0.852539)"/>
</clipPath>
</defs>
</svg>
