<svg width="13" height="13" viewBox="0 0 13 13" fill="none" xmlns="http://www.w3.org/2000/svg">
<path d="M11.9562 5.17368L7.66668 5.17361L7.66594 0.883418C7.66587 0.842532 7.65772 0.801985 7.64195 0.764111C7.62619 0.726237 7.60311 0.691783 7.57406 0.662733C7.54501 0.633683 7.51056 0.610611 7.47269 0.594843C7.43481 0.579075 7.39426 0.570923 7.35338 0.570856L5.3265 0.571054C5.26645 0.57122 5.20784 0.588517 5.15758 0.620914C5.10732 0.653311 5.06747 0.699464 5.04273 0.753955C5.0241 0.794441 5.0144 0.838535 5.01429 0.883265L5.01503 5.17345L0.724183 5.17337C0.67945 5.17345 0.63535 5.18315 0.594874 5.20181C0.540383 5.22656 0.49423 5.2664 0.461833 5.31666C0.429435 5.36693 0.412138 5.42553 0.411972 5.48559L0.411774 7.51246C0.411841 7.55335 0.419993 7.59389 0.435761 7.63177C0.451529 7.66964 0.474602 7.70409 0.503652 7.73314C0.532702 7.76219 0.567155 7.78527 0.605029 7.80104C0.642903 7.8168 0.68345 7.82496 0.724336 7.82502L5.01518 7.8251L5.0146 12.1153C5.01467 12.1562 5.02282 12.1967 5.03859 12.2346C5.05436 12.2725 5.07743 12.3069 5.10648 12.336C5.13553 12.365 5.16998 12.3881 5.20786 12.4039C5.24573 12.4196 5.28628 12.4278 5.32716 12.4278L7.35404 12.4277C7.4141 12.4275 7.4727 12.4102 7.52296 12.3778C7.57322 12.3454 7.61307 12.2992 7.63781 12.2447C7.65644 12.2043 7.66614 12.1602 7.66625 12.1154L7.66617 7.82459L11.9564 7.82401C12.0011 7.8239 12.0452 7.8142 12.0857 7.79557C12.1402 7.77083 12.1863 7.73099 12.2187 7.68072C12.2511 7.63046 12.2684 7.57186 12.2686 7.5118L12.2688 5.48492C12.2687 5.44404 12.2605 5.40349 12.2448 5.36562C12.229 5.32774 12.2059 5.29329 12.1769 5.26424C12.1478 5.23519 12.1134 5.21212 12.0755 5.19635C12.0376 5.18058 11.9971 5.17243 11.9562 5.17236L11.9562 5.17368Z" fill="#6F6F6F"/>
</svg>
