<svg width="24" height="25" viewBox="0 0 24 25" fill="none" xmlns="http://www.w3.org/2000/svg">
<path d="M11.4599 13.9942C13.0118 13.9942 14.2699 12.7119 14.2699 11.1301C14.2699 9.54838 13.0118 8.26611 11.4599 8.26611C9.90798 8.26611 8.6499 9.54838 8.6499 11.1301C8.6499 12.7119 9.90798 13.9942 11.4599 13.9942Z" stroke="#111111" stroke-linecap="round" stroke-linejoin="round"/>
<path d="M16.65 20.5887C16.65 18.2139 14.33 16.2773 11.46 16.2773C8.59002 16.2773 6.27002 18.2037 6.27002 20.5887" stroke="#111111" stroke-linecap="round" stroke-linejoin="round"/>
<path d="M21 12.7403C21 18.0913 16.75 22.423 11.5 22.423C6.25 22.423 2 18.0913 2 12.7403C2 7.38935 6.25 3.05762 11.5 3.05762C12.81 3.05762 14.06 3.32261 15.2 3.81184C15.07 4.21953 15 4.64762 15 5.09608C15 5.8605 15.21 6.58415 15.58 7.19569C15.78 7.54223 16.04 7.85816 16.34 8.12316C17.04 8.77547 17.97 9.173 19 9.173C19.44 9.173 19.86 9.10163 20.25 8.95894C20.73 10.1209 21 11.4051 21 12.7403Z" stroke="#111111" stroke-linecap="round" stroke-linejoin="round"/>
<path d="M23 5.09597C23 5.42212 22.96 5.73807 22.88 6.04384C22.79 6.45154 22.63 6.84904 22.42 7.19558C21.94 8.02116 21.17 8.66325 20.25 8.95883C19.86 9.10152 19.44 9.17289 19 9.17289C17.97 9.17289 17.04 8.77536 16.34 8.12305C16.04 7.85805 15.78 7.54212 15.58 7.19558C15.21 6.58404 15 5.86039 15 5.09597C15 4.6475 15.07 4.21942 15.2 3.81173C15.39 3.22057 15.71 2.6906 16.13 2.25233C16.86 1.48791 17.88 1.01904 19 1.01904C20.18 1.01904 21.25 1.53887 21.97 2.37464C22.61 3.09829 23 4.05635 23 5.09597Z" stroke="#111111" stroke-miterlimit="10" stroke-linecap="round" stroke-linejoin="round"/>
<path d="M20.49 5.07568H17.51" stroke="#111111" stroke-miterlimit="10" stroke-linecap="round" stroke-linejoin="round"/>
<path d="M19 3.58789V6.63538" stroke="#111111" stroke-miterlimit="10" stroke-linecap="round" stroke-linejoin="round"/>
</svg>
