<svg width="8" height="15" viewBox="0 0 8 15" fill="none" xmlns="http://www.w3.org/2000/svg">
<path d="M5.16067 7.49235L0.52732 2.20204C0.445634 2.10945 0.3808 1.99929 0.336555 1.87793C0.292311 1.75656 0.269531 1.62639 0.269531 1.49492C0.269531 1.36344 0.292311 1.23327 0.336555 1.1119C0.3808 0.990539 0.445634 0.880382 0.52732 0.787789C0.692576 0.602697 0.914757 0.499023 1.14616 0.499023C1.37757 0.499023 1.59975 0.602697 1.765 0.787789L7.01454 6.78219C7.1733 6.96409 7.26456 7.20893 7.26933 7.46577C7.27411 7.7226 7.19203 7.97165 7.04018 8.16109L1.77031 14.1989C1.68934 14.2933 1.5928 14.3685 1.48626 14.42C1.37973 14.4715 1.26531 14.4983 1.14963 14.499C1.03396 14.4997 0.919311 14.4741 0.812326 14.4239C0.705341 14.3736 0.608139 14.2996 0.526342 14.2061C0.444544 14.1126 0.379773 14.0016 0.335775 13.8793C0.291776 13.7571 0.269423 13.6261 0.270007 13.4939C0.270591 13.3617 0.294101 13.231 0.339178 13.1092C0.384255 12.9875 0.450005 12.8772 0.532624 12.7847L5.16067 7.49235Z" fill="white"/>
</svg>
