<svg width="25" height="24" viewBox="0 0 25 24" fill="none" xmlns="http://www.w3.org/2000/svg">
<path d="M18.7305 1.99902H6.73047C6.46525 1.99902 6.2109 2.10438 6.02336 2.29192C5.83583 2.47945 5.73047 2.73381 5.73047 2.99902V20.999C5.73046 21.1902 5.78524 21.3774 5.88832 21.5383C5.99141 21.6993 6.13848 21.8274 6.31211 21.9074C6.48574 21.9873 6.67866 22.0159 6.868 21.9896C7.05735 21.9633 7.2352 21.8833 7.38047 21.759L12.7305 17.269L18.0205 21.709C18.1139 21.8017 18.2247 21.875 18.3466 21.9248C18.4684 21.9746 18.5989 21.9998 18.7305 21.999C18.8616 22.0024 18.9918 21.975 19.1105 21.919C19.2931 21.844 19.4494 21.7166 19.5597 21.5529C19.6701 21.3892 19.7295 21.1964 19.7305 20.999V2.99902C19.7305 2.73381 19.6251 2.47945 19.4376 2.29192C19.25 2.10438 18.9957 1.99902 18.7305 1.99902ZM17.7305 18.859L13.3705 15.199C13.1908 15.0494 12.9643 14.9674 12.7305 14.9674C12.4966 14.9674 12.2702 15.0494 12.0905 15.199L7.73047 18.859V3.99902H17.7305V18.859Z" fill="#6F6F6F"/>
</svg>
