<svg width="17" height="16" viewBox="0 0 17 16" fill="none" xmlns="http://www.w3.org/2000/svg">
<path d="M8.97966 13.3325H4.31299C4.13618 13.3325 3.96661 13.2623 3.84158 13.1373C3.71656 13.0122 3.64632 12.8427 3.64632 12.6659V3.33252C3.64632 3.15571 3.71656 2.98614 3.84158 2.86112C3.96661 2.73609 4.13618 2.66585 4.31299 2.66585H7.64632V4.66585C7.64632 5.19629 7.85704 5.70499 8.23211 6.08007C8.60718 6.45514 9.11589 6.66585 9.64632 6.66585H11.6463V7.33252C11.6463 7.50933 11.7166 7.6789 11.8416 7.80392C11.9666 7.92895 12.1362 7.99919 12.313 7.99919C12.4898 7.99919 12.6594 7.92895 12.7844 7.80392C12.9094 7.6789 12.9797 7.50933 12.9797 7.33252V5.99919C12.9797 5.99919 12.9797 5.99919 12.9797 5.95919C12.9727 5.89794 12.9593 5.83761 12.9397 5.77919V5.71919C12.9076 5.65064 12.8648 5.58763 12.813 5.53252L8.81299 1.53252C8.75788 1.48066 8.69487 1.43791 8.62632 1.40585C8.60642 1.40303 8.58622 1.40303 8.56632 1.40585C8.4986 1.36701 8.4238 1.34208 8.34632 1.33252H4.31299C3.78256 1.33252 3.27385 1.54323 2.89877 1.91831C2.5237 2.29338 2.31299 2.80209 2.31299 3.33252V12.6659C2.31299 13.1963 2.5237 13.705 2.89877 14.0801C3.27385 14.4551 3.78256 14.6659 4.31299 14.6659H8.97966C9.15647 14.6659 9.32604 14.5956 9.45106 14.4706C9.57608 14.3456 9.64632 14.176 9.64632 13.9992C9.64632 13.8224 9.57608 13.6528 9.45106 13.5278C9.32604 13.4028 9.15647 13.3325 8.97966 13.3325ZM8.97966 3.60585L10.7063 5.33252H9.64632C9.46951 5.33252 9.29994 5.26228 9.17492 5.13726C9.04989 5.01223 8.97966 4.84266 8.97966 4.66585V3.60585ZM5.64632 5.33252C5.46951 5.33252 5.29994 5.40276 5.17492 5.52778C5.04989 5.65281 4.97966 5.82238 4.97966 5.99919C4.97966 6.176 5.04989 6.34557 5.17492 6.47059C5.29994 6.59561 5.46951 6.66585 5.64632 6.66585H6.31299C6.4898 6.66585 6.65937 6.59561 6.78439 6.47059C6.90942 6.34557 6.97966 6.176 6.97966 5.99919C6.97966 5.82238 6.90942 5.65281 6.78439 5.52778C6.65937 5.40276 6.4898 5.33252 6.31299 5.33252H5.64632ZM15.453 13.5259L14.673 12.7525C14.9223 12.3174 15.0221 11.8125 14.9571 11.3152C14.892 10.8179 14.6658 10.3556 14.313 9.99919C13.9883 9.66297 13.57 9.43232 13.1123 9.33728C12.6547 9.24224 12.1791 9.28723 11.7474 9.46638C11.3157 9.64552 10.948 9.95053 10.6922 10.3417C10.4363 10.7328 10.3042 11.1919 10.313 11.6592C10.3107 12.0613 10.4136 12.457 10.6114 12.8071C10.8092 13.1572 11.0952 13.4495 11.4408 13.6551C11.7865 13.8606 12.1798 13.9721 12.5819 13.9787C12.984 13.9853 13.3808 13.8866 13.733 13.6925L14.5063 14.4725C14.5683 14.535 14.642 14.5846 14.7233 14.6184C14.8045 14.6523 14.8916 14.6697 14.9797 14.6697C15.0677 14.6697 15.1548 14.6523 15.236 14.6184C15.3173 14.5846 15.391 14.535 15.453 14.4725C15.5155 14.4105 15.5651 14.3368 15.5989 14.2556C15.6328 14.1743 15.6502 14.0872 15.6502 13.9992C15.6502 13.9112 15.6328 13.824 15.5989 13.7428C15.5651 13.6616 15.5155 13.5878 15.453 13.5259ZM13.3397 12.3592C13.1492 12.5383 12.8977 12.6379 12.6363 12.6379C12.3749 12.6379 12.1234 12.5383 11.933 12.3592C11.7495 12.1724 11.6465 11.9211 11.6463 11.6592C11.6449 11.5277 11.6702 11.3973 11.7206 11.2758C11.7711 11.1544 11.8456 11.0444 11.9397 10.9525C12.1174 10.7757 12.3558 10.6733 12.6063 10.6659C12.7411 10.6576 12.8761 10.6772 13.003 10.7236C13.1298 10.77 13.2457 10.8421 13.3433 10.9353C13.441 11.0286 13.5183 11.141 13.5704 11.2656C13.6226 11.3902 13.6484 11.5242 13.6463 11.6592C13.6408 11.9239 13.5305 12.1757 13.3397 12.3592ZM9.64632 7.99919H5.64632C5.46951 7.99919 5.29994 8.06942 5.17492 8.19445C5.04989 8.31947 4.97966 8.48904 4.97966 8.66585C4.97966 8.84266 5.04989 9.01223 5.17492 9.13726C5.29994 9.26228 5.46951 9.33252 5.64632 9.33252H9.64632C9.82313 9.33252 9.9927 9.26228 10.1177 9.13726C10.2428 9.01223 10.313 8.84266 10.313 8.66585C10.313 8.48904 10.2428 8.31947 10.1177 8.19445C9.9927 8.06942 9.82313 7.99919 9.64632 7.99919ZM8.31299 11.9992C8.4898 11.9992 8.65937 11.9289 8.78439 11.8039C8.90942 11.6789 8.97966 11.5093 8.97966 11.3325C8.97966 11.1557 8.90942 10.9861 8.78439 10.8611C8.65937 10.7361 8.4898 10.6659 8.31299 10.6659H5.64632C5.46951 10.6659 5.29994 10.7361 5.17492 10.8611C5.04989 10.9861 4.97966 11.1557 4.97966 11.3325C4.97966 11.5093 5.04989 11.6789 5.17492 11.8039C5.29994 11.9289 5.46951 11.9992 5.64632 11.9992H8.31299Z" fill="#175DA8"/>
</svg>
