<svg width="24" height="24" viewBox="0 0 24 24" fill="none" xmlns="http://www.w3.org/2000/svg">
<path d="M21.07 16.8292L19 14.7092C18.5547 14.286 17.9931 14.0055 17.3872 13.904C16.7813 13.8024 16.1589 13.8843 15.6 14.1392L14.7 13.2392C15.7605 11.8221 16.2449 10.0559 16.0555 8.29604C15.8662 6.5362 15.0172 4.91343 13.6794 3.75441C12.3417 2.59538 10.6145 1.98617 8.84565 2.04939C7.07678 2.11262 5.39754 2.8436 4.14596 4.09518C2.89438 5.34676 2.1634 7.026 2.10017 8.79487C2.03695 10.5637 2.64617 12.2909 3.80519 13.6286C4.96421 14.9664 6.58699 15.8154 8.34683 16.0048C10.1067 16.1941 11.8729 15.7098 13.29 14.6492L14.18 15.5392C13.8951 16.0988 13.793 16.7338 13.8881 17.3545C13.9831 17.9753 14.2706 18.5505 14.71 18.9992L16.83 21.1192C17.3925 21.681 18.155 21.9966 18.95 21.9966C19.745 21.9966 20.5075 21.681 21.07 21.1192C21.3557 20.8398 21.5828 20.5061 21.7378 20.1378C21.8928 19.7694 21.9726 19.3738 21.9726 18.9742C21.9726 18.5746 21.8928 18.179 21.7378 17.8106C21.5828 17.4423 21.3557 17.1086 21.07 16.8292ZM12.59 12.5892C11.8902 13.2872 10.9993 13.7622 10.0297 13.9541C9.06017 14.146 8.05549 14.0462 7.14259 13.6674C6.2297 13.2886 5.44955 12.6477 4.9007 11.8257C4.35185 11.0038 4.05893 10.0376 4.05893 9.04921C4.05893 8.06084 4.35185 7.09464 4.9007 6.27267C5.44955 5.4507 6.2297 4.80983 7.14259 4.43102C8.05549 4.05221 9.06017 3.95246 10.0297 4.14436C10.9993 4.33626 11.8902 4.81121 12.59 5.50921C13.0556 5.97367 13.4251 6.52542 13.6771 7.13287C13.9292 7.74032 14.0589 8.39154 14.0589 9.04921C14.0589 9.70688 13.9292 10.3581 13.6771 10.9655C13.4251 11.573 13.0556 12.1248 12.59 12.5892ZM19.66 19.6592C19.567 19.7529 19.4564 19.8273 19.3346 19.8781C19.2127 19.9289 19.082 19.955 18.95 19.955C18.818 19.955 18.6873 19.9289 18.5654 19.8781C18.4436 19.8273 18.333 19.7529 18.24 19.6592L16.12 17.5392C16.0263 17.4462 15.9519 17.3356 15.9011 17.2138C15.8503 17.0919 15.8242 16.9612 15.8242 16.8292C15.8242 16.6972 15.8503 16.5665 15.9011 16.4446C15.9519 16.3228 16.0263 16.2122 16.12 16.1192C16.213 16.0255 16.3236 15.9511 16.4454 15.9003C16.5673 15.8495 16.698 15.8234 16.83 15.8234C16.962 15.8234 17.0927 15.8495 17.2146 15.9003C17.3364 15.9511 17.447 16.0255 17.54 16.1192L19.66 18.2392C19.7537 18.3322 19.8281 18.4428 19.8789 18.5646C19.9296 18.6865 19.9558 18.8172 19.9558 18.9492C19.9558 19.0812 19.9296 19.2119 19.8789 19.3338C19.8281 19.4556 19.7537 19.5662 19.66 19.6592Z" fill="#6F6F6F"/>
</svg>
