<svg width="60" height="59" viewBox="0 0 60 59" fill="none" xmlns="http://www.w3.org/2000/svg">
<circle cx="30.0391" cy="29.499" r="28.5" fill="white" stroke="#97B6D8" stroke-width="2"/>
<path d="M37.5393 32.6657C36.7515 32.6709 35.9747 32.8506 35.2646 33.1917C34.5545 33.5329 33.9289 34.0272 33.4326 34.639L26.6326 31.5057C26.9523 30.5267 26.9523 29.4713 26.6326 28.4923L33.4326 25.359C34.2348 26.327 35.3531 26.9805 36.5901 27.2041C37.8272 27.4278 39.1035 27.2073 40.1939 26.5816C41.2842 25.9558 42.1184 24.965 42.5493 23.784C42.9802 22.603 42.9801 21.3078 42.549 20.1269C42.1179 18.946 41.2835 17.9553 40.193 17.3298C39.1026 16.7042 37.8262 16.4839 36.5892 16.7078C35.3521 16.9318 34.234 17.5854 33.432 18.5535C32.63 19.5216 32.1958 20.7419 32.2059 21.999C32.2099 22.3167 32.2412 22.6334 32.2993 22.9457L25.2593 26.1857C24.5087 25.4518 23.5583 24.9557 22.527 24.7596C21.4958 24.5635 20.4296 24.676 19.462 25.0832C18.4944 25.4903 17.6685 26.174 17.0878 27.0484C16.507 27.9229 16.1973 28.9493 16.1973 29.999C16.1973 31.0487 16.507 32.0751 17.0878 32.9496C17.6685 33.8241 18.4944 34.5077 19.462 34.9148C20.4296 35.322 21.4958 35.4346 22.527 35.2384C23.5583 35.0423 24.5087 34.5462 25.2593 33.8123L32.2993 37.0523C32.2412 37.3647 32.2099 37.6814 32.2059 37.999C32.2059 39.0538 32.5187 40.085 33.1048 40.9621C33.6908 41.8391 34.5237 42.5227 35.4983 42.9264C36.4728 43.33 37.5452 43.4357 38.5797 43.2299C39.6143 43.0241 40.5646 42.5161 41.3105 41.7702C42.0564 41.0244 42.5643 40.0741 42.7701 39.0395C42.9759 38.0049 42.8703 36.9326 42.4666 35.958C42.063 34.9835 41.3794 34.1505 40.5023 33.5645C39.6252 32.9785 38.5941 32.6657 37.5393 32.6657ZM37.5393 19.3323C38.0667 19.3323 38.5823 19.4887 39.0208 19.7818C39.4593 20.0748 39.8011 20.4913 40.0029 20.9785C40.2048 21.4658 40.2576 22.002 40.1547 22.5193C40.0518 23.0365 39.7978 23.5117 39.4249 23.8846C39.0519 24.2576 38.5768 24.5115 38.0595 24.6144C37.5422 24.7173 37.006 24.6645 36.5188 24.4627C36.0315 24.2609 35.615 23.9191 35.322 23.4805C35.029 23.042 34.8726 22.5264 34.8726 21.999C34.8726 21.2918 35.1535 20.6135 35.6536 20.1134C36.1537 19.6133 36.832 19.3323 37.5393 19.3323V19.3323ZM21.5393 32.6657C21.0118 32.6657 20.4963 32.5093 20.0577 32.2163C19.6192 31.9232 19.2774 31.5068 19.0756 31.0195C18.8737 30.5322 18.8209 29.9961 18.9238 29.4788C19.0267 28.9615 19.2807 28.4863 19.6536 28.1134C20.0266 27.7405 20.5017 27.4865 21.019 27.3836C21.5363 27.2807 22.0725 27.3335 22.5598 27.5353C23.047 27.7372 23.4635 28.079 23.7565 28.5175C24.0495 28.956 24.2059 29.4716 24.2059 29.999C24.2059 30.7063 23.925 31.3845 23.4249 31.8846C22.9248 32.3847 22.2465 32.6657 21.5393 32.6657ZM37.5393 40.6657C37.0118 40.6657 36.4963 40.5093 36.0577 40.2163C35.6192 39.9232 35.2774 39.5068 35.0756 39.0195C34.8737 38.5322 34.8209 37.9961 34.9238 37.4788C35.0267 36.9615 35.2807 36.4863 35.6536 36.1134C36.0266 35.7405 36.5017 35.4865 37.019 35.3836C37.5363 35.2807 38.0725 35.3335 38.5598 35.5353C39.047 35.7372 39.4635 36.079 39.7565 36.5175C40.0495 36.956 40.2059 37.4716 40.2059 37.999C40.2059 38.7063 39.925 39.3845 39.4249 39.8846C38.9248 40.3847 38.2465 40.6657 37.5393 40.6657Z" fill="#175DA8"/>
</svg>
