<svg width="20" height="18" viewBox="0 0 20 18" fill="none" xmlns="http://www.w3.org/2000/svg">
<path d="M17.682 17.682H1.413C1.03807 17.6815 0.678668 17.5322 0.413736 17.2668C0.148805 17.0015 -3.74518e-07 16.6419 0 16.267V7.78C2.25723 8.91773 4.62796 9.81467 7.073 10.456V11.316C7.073 11.4088 7.09129 11.5008 7.12682 11.5866C7.16235 11.6723 7.21442 11.7503 7.28008 11.8159C7.34573 11.8816 7.42367 11.9337 7.50944 11.9692C7.59522 12.0047 7.68716 12.023 7.78 12.023H11.317C11.4098 12.023 11.5018 12.0047 11.5876 11.9692C11.6733 11.9337 11.7513 11.8816 11.8169 11.8159C11.8826 11.7503 11.9347 11.6723 11.9702 11.5866C12.0057 11.5008 12.024 11.4088 12.024 11.316V10.456C14.47 9.81472 16.8417 8.91778 19.1 7.78V16.268C19.0999 16.454 19.0631 16.6381 18.9917 16.8099C18.9204 16.9816 18.8158 17.1376 18.6841 17.269C18.5524 17.4003 18.3961 17.5044 18.2242 17.5752C18.0522 17.6461 17.868 17.6824 17.682 17.682ZM10.609 9.194C10.7965 9.194 10.9763 9.26849 11.1089 9.40108C11.2415 9.53366 11.316 9.71349 11.316 9.901V10.608C11.316 10.7955 11.2415 10.9753 11.1089 11.1079C10.9763 11.2405 10.7965 11.315 10.609 11.315H8.486C8.29849 11.315 8.11866 11.2405 7.98608 11.1079C7.85349 10.9753 7.779 10.7955 7.779 10.608V9.901C7.779 9.71349 7.85349 9.53366 7.98608 9.40108C8.11866 9.26849 8.29849 9.194 8.486 9.194H10.609ZM12.024 9.194C12.024 9.00649 11.9495 8.82666 11.8169 8.69408C11.6843 8.56149 11.5045 8.487 11.317 8.487H7.779C7.59149 8.487 7.41166 8.56149 7.27908 8.69408C7.14649 8.82666 7.072 9.00649 7.072 9.194V9.828C4.62278 9.16522 2.25184 8.24125 0 7.072V4.243C-3.74518e-07 3.86806 0.148805 3.50846 0.413736 3.24315C0.678668 2.97784 1.03807 2.82853 1.413 2.828H5.657V1.415C5.657 1.03972 5.80608 0.679808 6.07144 0.414444C6.33681 0.14908 6.69672 0 7.072 0H12.023C12.3983 0 12.7582 0.14908 13.0236 0.414444C13.2889 0.679808 13.438 1.03972 13.438 1.415V2.828H17.682C17.8681 2.82761 18.0524 2.86391 18.2244 2.93485C18.3964 3.00578 18.5528 3.10995 18.6845 3.24138C18.8162 3.37282 18.9207 3.52894 18.992 3.70081C19.0633 3.87268 19.1 4.05693 19.1 4.243V7.072C16.8478 8.24117 14.4765 9.16513 12.027 9.828L12.024 9.194ZM12.024 2.121C12.024 1.93349 11.9495 1.75366 11.8169 1.62108C11.6843 1.48849 11.5045 1.414 11.317 1.414H7.779C7.59149 1.414 7.41166 1.48849 7.27908 1.62108C7.14649 1.75366 7.072 1.93349 7.072 2.121V2.828H12.023L12.024 2.121Z" fill="#4EA647"/>
</svg>
