<svg width="9" height="9" viewBox="0 0 9 9" fill="none" xmlns="http://www.w3.org/2000/svg">
<g clip-path="url(#clip0_1_17849)">
<path d="M7.3125 1.5H6.1875V0.9375C6.1875 0.887772 6.16775 0.840081 6.13258 0.804918C6.09742 0.769754 6.04973 0.75 6 0.75C5.95027 0.75 5.90258 0.769754 5.86742 0.804918C5.83225 0.840081 5.8125 0.887772 5.8125 0.9375V1.5H3.1875V0.9375C3.1875 0.887772 3.16775 0.840081 3.13258 0.804918C3.09742 0.769754 3.04973 0.75 3 0.75C2.95027 0.75 2.90258 0.769754 2.86742 0.804918C2.83225 0.840081 2.8125 0.887772 2.8125 0.9375V1.5H1.6875C1.43895 1.5003 1.20067 1.59917 1.02492 1.77492C0.849165 1.95067 0.750298 2.18895 0.75 2.4375V7.3125C0.750298 7.56105 0.849165 7.79933 1.02492 7.97508C1.20067 8.15083 1.43895 8.2497 1.6875 8.25H7.3125C7.56108 8.2498 7.79942 8.15097 7.97519 7.97519C8.15097 7.79942 8.2498 7.56108 8.25 7.3125V2.4375C8.2498 2.18892 8.15097 1.95058 7.97519 1.77481C7.79942 1.59903 7.56108 1.5002 7.3125 1.5ZM7.875 7.3125C7.875 7.46168 7.81574 7.60476 7.71025 7.71025C7.60476 7.81574 7.46168 7.875 7.3125 7.875H1.6875C1.53832 7.875 1.39524 7.81574 1.28975 7.71025C1.18426 7.60476 1.125 7.46168 1.125 7.3125V4.125H7.875V7.3125ZM7.875 3.75H1.125V2.4375C1.125 2.127 1.37625 1.875 1.6875 1.875H2.8125V2.4375C2.8125 2.48723 2.83225 2.53492 2.86742 2.57008C2.90258 2.60525 2.95027 2.625 3 2.625C3.04973 2.625 3.09742 2.60525 3.13258 2.57008C3.16775 2.53492 3.1875 2.48723 3.1875 2.4375V1.875H5.8125V2.4375C5.8125 2.48723 5.83225 2.53492 5.86742 2.57008C5.90258 2.60525 5.95027 2.625 6 2.625C6.04973 2.625 6.09742 2.60525 6.13258 2.57008C6.16775 2.53492 6.1875 2.48723 6.1875 2.4375V1.875H7.3125C7.46168 1.875 7.60476 1.93426 7.71025 2.03975C7.81574 2.14524 7.875 2.28832 7.875 2.4375V3.75Z" fill="#175DA8"/>
</g>
<defs>
<clipPath id="clip0_1_17849">
<rect width="9" height="9" fill="white"/>
</clipPath>
</defs>
</svg>
