<svg width="25" height="24" viewBox="0 0 25 24" fill="none" xmlns="http://www.w3.org/2000/svg">
<path d="M15.4694 10.8588C15.8043 10.3978 16.0052 9.85313 16.0499 9.28504C16.0945 8.71695 15.9813 8.14757 15.7225 7.63984C15.4638 7.13212 15.0697 6.70582 14.5838 6.40809C14.098 6.11035 13.5392 5.95278 12.9694 5.95278C12.3995 5.95278 11.8408 6.11035 11.3549 6.40809C10.869 6.70582 10.4749 7.13212 10.2162 7.63984C9.95749 8.14757 9.84421 8.71695 9.88889 9.28504C9.93356 9.85313 10.1345 10.3978 10.4694 10.8588C10.0445 11.1296 9.66633 11.4673 9.34937 11.8588C9.26664 11.9659 9.2058 12.0881 9.17032 12.2187C9.13484 12.3492 9.12543 12.4855 9.1426 12.6197C9.15978 12.7538 9.20322 12.8833 9.27044 13.0007C9.33766 13.1181 9.42735 13.2211 9.53437 13.3038C9.6414 13.3866 9.76368 13.4474 9.89422 13.4829C10.0248 13.5184 10.161 13.5278 10.2952 13.5106C10.4294 13.4934 10.5589 13.45 10.6762 13.3828C10.7936 13.3156 10.8966 13.2259 10.9794 13.1188C11.2236 12.8084 11.5348 12.5572 11.8898 12.3841C12.2448 12.2109 12.6344 12.1202 13.0294 12.1188C13.4244 12.1202 13.8139 12.2109 14.1689 12.3841C14.5239 12.5572 14.8352 12.8084 15.0794 13.1188C15.1735 13.2349 15.2924 13.3283 15.4274 13.3924C15.5624 13.4564 15.71 13.4894 15.8594 13.4888C16.0468 13.488 16.2303 13.4344 16.3888 13.3343C16.5473 13.2342 16.6745 13.0916 16.7558 12.9227C16.8371 12.7538 16.8693 12.5654 16.8487 12.3791C16.8282 12.1927 16.7556 12.0159 16.6394 11.8688C16.3082 11.4695 15.9128 11.1282 15.4694 10.8588ZM12.9794 10.1288C12.7655 10.1287 12.5564 10.0657 12.3782 9.94756C12.1999 9.82947 12.0603 9.66154 11.9767 9.46469C11.8932 9.26783 11.8694 9.05076 11.9083 8.84048C11.9472 8.6302 12.0471 8.43602 12.1956 8.28211C12.3441 8.1282 12.5345 8.02135 12.7433 7.97489C12.952 7.92842 13.1698 7.94438 13.3695 8.02078C13.5693 8.09718 13.7421 8.23065 13.8665 8.40456C13.991 8.57847 14.0615 8.78514 14.0694 8.99884C14.0748 9.14532 14.0505 9.29137 13.9982 9.42826C13.9458 9.56516 13.8664 9.69009 13.7646 9.79558C13.6629 9.90107 13.5409 9.98496 13.4059 10.0422C13.271 10.0995 13.1259 10.1289 12.9794 10.1288ZM21.4394 9.62884C21.299 8.16776 20.7826 6.76793 19.9406 5.56566C19.0985 4.3634 17.9595 3.39967 16.6344 2.76834C15.3093 2.137 13.8433 1.85956 12.3791 1.96305C10.9149 2.06653 9.50251 2.5474 8.27937 3.35884C7.22857 4.06149 6.34643 4.98814 5.69632 6.07223C5.04621 7.15633 4.64427 8.37095 4.51937 9.62884C4.39686 10.8785 4.55405 12.1398 4.97954 13.3211C5.40504 14.5025 6.08817 15.5743 6.97937 16.4588L12.2794 21.7688C12.3723 21.8626 12.4829 21.937 12.6048 21.9877C12.7267 22.0385 12.8574 22.0646 12.9894 22.0646C13.1214 22.0646 13.2521 22.0385 13.374 21.9877C13.4958 21.937 13.6064 21.8626 13.6994 21.7688L18.9794 16.4588C19.8706 15.5743 20.5537 14.5025 20.9792 13.3211C21.4047 12.1398 21.5619 10.8785 21.4394 9.62884ZM17.5794 15.0488L12.9794 19.6488L8.37937 15.0488C7.70146 14.3709 7.18218 13.5512 6.85884 12.6486C6.53551 11.746 6.41616 10.783 6.50937 9.82884C6.60319 8.85995 6.91114 7.924 7.41094 7.08869C7.91075 6.25337 8.58993 5.53955 9.39937 4.99884C10.4603 4.29408 11.7057 3.91814 12.9794 3.91814C14.2531 3.91814 15.4984 4.29408 16.5594 4.99884C17.3664 5.53746 18.044 6.24813 18.5437 7.07978C19.0434 7.91144 19.3527 8.84345 19.4494 9.80884C19.5456 10.7663 19.4278 11.7331 19.1044 12.6394C18.7809 13.5457 18.26 14.3687 17.5794 15.0488Z" fill="#175DA8"/>
</svg>
