<svg width="24" height="24" viewBox="0 0 24 24" fill="none" xmlns="http://www.w3.org/2000/svg">
<path d="M14.4899 10.8588C14.8248 10.3978 15.0257 9.85313 15.0704 9.28504C15.115 8.71695 15.0018 8.14757 14.743 7.63984C14.4843 7.13212 14.0902 6.70582 13.6044 6.40809C13.1185 6.11035 12.5597 5.95278 11.9899 5.95278C11.42 5.95278 10.8613 6.11035 10.3754 6.40809C9.88953 6.70582 9.49545 7.13212 9.23672 7.63984C8.978 8.14757 8.86472 8.71695 8.90939 9.28504C8.95407 9.85313 9.15497 10.3978 9.48988 10.8588C9.06505 11.1296 8.68683 11.4673 8.36988 11.8588C8.28715 11.9659 8.22631 12.0881 8.19083 12.2187C8.15535 12.3492 8.14593 12.4855 8.16311 12.6197C8.18029 12.7538 8.22373 12.8833 8.29095 13.0007C8.35817 13.1181 8.44785 13.2211 8.55488 13.3038C8.66191 13.3866 8.78418 13.4474 8.91472 13.4829C9.04526 13.5184 9.18152 13.5278 9.3157 13.5106C9.44988 13.4934 9.57936 13.45 9.69675 13.3828C9.81414 13.3156 9.91715 13.2259 9.99988 13.1188C10.2441 12.8084 10.5554 12.5572 10.9104 12.3841C11.2653 12.2109 11.6549 12.1202 12.0499 12.1188C12.4449 12.1202 12.8344 12.2109 13.1894 12.3841C13.5444 12.5572 13.8557 12.8084 14.0999 13.1188C14.194 13.2349 14.3129 13.3283 14.4479 13.3924C14.5829 13.4564 14.7305 13.4894 14.8799 13.4888C15.0673 13.488 15.2508 13.4344 15.4093 13.3343C15.5678 13.2342 15.695 13.0916 15.7763 12.9227C15.8576 12.7538 15.8898 12.5654 15.8692 12.3791C15.8487 12.1927 15.7761 12.0159 15.6599 11.8688C15.3287 11.4695 14.9333 11.1282 14.4899 10.8588ZM11.9999 10.1288C11.786 10.1287 11.577 10.0657 11.3987 9.94756C11.2204 9.82947 11.0808 9.66154 10.9972 9.46469C10.9137 9.26783 10.8899 9.05076 10.9288 8.84048C10.9677 8.6302 11.0676 8.43602 11.2161 8.28211C11.3646 8.1282 11.555 8.02135 11.7638 7.97489C11.9725 7.92842 12.1903 7.94438 12.39 8.02078C12.5898 8.09718 12.7626 8.23065 12.8871 8.40456C13.0115 8.57847 13.082 8.78514 13.0899 8.99884C13.0953 9.14532 13.071 9.29137 13.0187 9.42826C12.9663 9.56516 12.8869 9.69009 12.7851 9.79558C12.6834 9.90107 12.5614 9.98496 12.4265 10.0422C12.2915 10.0995 12.1465 10.1289 11.9999 10.1288ZM20.4599 9.62884C20.3195 8.16776 19.8031 6.76793 18.9611 5.56566C18.119 4.3634 16.98 3.39967 15.6549 2.76834C14.3298 2.137 12.8638 1.85956 11.3996 1.96305C9.93543 2.06653 8.52301 2.5474 7.29988 3.35884C6.24908 4.06149 5.36693 4.98814 4.71682 6.07223C4.06672 7.15633 3.66478 8.37095 3.53988 9.62884C3.41736 10.8785 3.57455 12.1398 4.00005 13.3211C4.42555 14.5025 5.10868 15.5743 5.99988 16.4588L11.2999 21.7688C11.3928 21.8626 11.5034 21.937 11.6253 21.9877C11.7472 22.0385 11.8779 22.0646 12.0099 22.0646C12.1419 22.0646 12.2726 22.0385 12.3945 21.9877C12.5163 21.937 12.6269 21.8626 12.7199 21.7688L17.9999 16.4588C18.8911 15.5743 19.5742 14.5025 19.9997 13.3211C20.4252 12.1398 20.5824 10.8785 20.4599 9.62884ZM16.5999 15.0488L11.9999 19.6488L7.39988 15.0488C6.72197 14.3709 6.20268 13.5512 5.87935 12.6486C5.55601 11.746 5.43667 10.783 5.52988 9.82884C5.6237 8.85995 5.93164 7.924 6.43145 7.08869C6.93126 6.25337 7.61044 5.53955 8.41988 4.99884C9.48083 4.29408 10.7262 3.91814 11.9999 3.91814C13.2736 3.91814 14.5189 4.29408 15.5799 4.99884C16.3869 5.53746 17.0646 6.24813 17.5642 7.07978C18.0639 7.91144 18.3732 8.84345 18.4699 9.80884C18.5661 10.7663 18.4483 11.7331 18.1249 12.6394C17.8014 13.5457 17.2805 14.3687 16.5999 15.0488Z" fill="#6F6F6F"/>
</svg>
