<svg width="16" height="18" viewBox="0 0 16 18" fill="none" xmlns="http://www.w3.org/2000/svg">
<path d="M15.0296 7.02396C14.9126 5.80638 14.4823 4.63986 13.7806 3.63797C13.0789 2.63608 12.1297 1.83298 11.0255 1.30687C9.92121 0.780752 8.69954 0.549556 7.4794 0.635791C6.25926 0.722027 5.08225 1.12276 4.06297 1.79896C3.1873 2.38449 2.45218 3.1567 1.91042 4.06011C1.36867 4.96352 1.03372 5.97571 0.929637 7.02396C0.827539 8.06534 0.958532 9.11639 1.31311 10.1009C1.66769 11.0853 2.23697 11.9785 2.97964 12.7156L7.3963 17.1406C7.47377 17.2187 7.56594 17.2807 7.66749 17.323C7.76904 17.3653 7.87796 17.3871 7.98797 17.3871C8.09798 17.3871 8.2069 17.3653 8.30845 17.323C8.41 17.2807 8.50217 17.2187 8.57964 17.1406L12.9796 12.7156C13.7223 11.9785 14.2916 11.0853 14.6462 10.1009C15.0007 9.11639 15.1317 8.06534 15.0296 7.02396V7.02396ZM11.813 11.5406L7.97964 15.374L4.1463 11.5406C3.58138 10.9757 3.14864 10.2926 2.87919 9.54042C2.60975 8.78828 2.51029 7.98578 2.58797 7.19062C2.66615 6.38321 2.92277 5.60326 3.33928 4.90716C3.75579 4.21106 4.32177 3.61621 4.9963 3.16562C5.88043 2.57832 6.91823 2.26503 7.97964 2.26503C9.04105 2.26503 10.0789 2.57832 10.963 3.16562C11.6355 3.61447 12.2002 4.20669 12.6166 4.89974C13.033 5.59279 13.2907 6.36946 13.3713 7.17396C13.4515 7.97181 13.3533 8.77752 13.0838 9.53274C12.8143 10.288 12.3802 10.9738 11.813 11.5406V11.5406ZM7.97964 3.99896C7.23796 3.99896 6.51293 4.21889 5.89625 4.63094C5.27957 5.043 4.79892 5.62867 4.51509 6.31389C4.23126 6.99912 4.157 7.75312 4.30169 8.48054C4.44639 9.20797 4.80354 9.87616 5.32799 10.4006C5.85243 10.9251 6.52062 11.2822 7.24805 11.4269C7.97548 11.5716 8.72948 11.4973 9.4147 11.2135C10.0999 10.9297 10.6856 10.449 11.0976 9.83234C11.5097 9.21566 11.7296 8.49064 11.7296 7.74896C11.7274 6.75507 11.3316 5.80252 10.6289 5.09974C9.92607 4.39695 8.97352 4.00116 7.97964 3.99896V3.99896ZM7.97964 9.83229C7.56759 9.83229 7.1648 9.7101 6.8222 9.48118C6.4796 9.25226 6.21257 8.92689 6.05489 8.54621C5.89721 8.16553 5.85595 7.74664 5.93633 7.34252C6.01672 6.93839 6.21514 6.56718 6.5065 6.27582C6.79786 5.98446 7.16907 5.78604 7.5732 5.70565C7.97733 5.62527 8.39622 5.66652 8.77689 5.82421C9.15757 5.98189 9.48295 6.24891 9.71187 6.59152C9.94079 6.93412 10.063 7.33691 10.063 7.74896C10.063 8.30149 9.84348 8.83139 9.45278 9.22209C9.06208 9.6128 8.53217 9.83229 7.97964 9.83229V9.83229Z" fill="#175DA8"/>
</svg>
