<svg width="16" height="15" viewBox="0 0 16 15" fill="none" xmlns="http://www.w3.org/2000/svg">
<path d="M7.76953 12.499H3.39453C3.22877 12.499 3.0698 12.4332 2.95259 12.316C2.83538 12.1988 2.76953 12.0398 2.76953 11.874V3.12402C2.76953 2.95826 2.83538 2.79929 2.95259 2.68208C3.0698 2.56487 3.22877 2.49902 3.39453 2.49902H6.51953V4.37402C6.51953 4.8713 6.71707 5.34822 7.06871 5.69985C7.42034 6.05148 7.89725 6.24902 8.39453 6.24902H10.2695V6.87402C10.2695 7.03978 10.3354 7.19875 10.4526 7.31597C10.5698 7.43318 10.7288 7.49902 10.8945 7.49902C11.0603 7.49902 11.2193 7.43318 11.3365 7.31597C11.4537 7.19875 11.5195 7.03978 11.5195 6.87402V5.62402C11.5195 5.62402 11.5195 5.62402 11.5195 5.58652C11.513 5.52911 11.5005 5.47254 11.482 5.41777V5.36152C11.452 5.29726 11.4119 5.23819 11.3633 5.18652L7.61328 1.43652C7.56162 1.38791 7.50254 1.34782 7.43828 1.31777C7.41962 1.31512 7.40069 1.31512 7.38203 1.31777C7.31854 1.28136 7.24842 1.25799 7.17578 1.24902H3.39453C2.89725 1.24902 2.42034 1.44657 2.06871 1.7982C1.71708 2.14983 1.51953 2.62674 1.51953 3.12402V11.874C1.51953 12.3713 1.71708 12.8482 2.06871 13.1998C2.42034 13.5515 2.89725 13.749 3.39453 13.749H7.76953C7.93529 13.749 8.09426 13.6832 8.21147 13.566C8.32868 13.4488 8.39453 13.2898 8.39453 13.124C8.39453 12.9583 8.32868 12.7993 8.21147 12.6821C8.09426 12.5649 7.93529 12.499 7.76953 12.499ZM7.76953 3.38027L9.38828 4.99902H8.39453C8.22877 4.99902 8.0698 4.93318 7.95259 4.81597C7.83538 4.69875 7.76953 4.53978 7.76953 4.37402V3.38027ZM4.64453 4.99902C4.47877 4.99902 4.3198 5.06487 4.20259 5.18208C4.08538 5.29929 4.01953 5.45826 4.01953 5.62402C4.01953 5.78978 4.08538 5.94875 4.20259 6.06597C4.3198 6.18318 4.47877 6.24902 4.64453 6.24902H5.26953C5.43529 6.24902 5.59426 6.18318 5.71147 6.06597C5.82868 5.94875 5.89453 5.78978 5.89453 5.62402C5.89453 5.45826 5.82868 5.29929 5.71147 5.18208C5.59426 5.06487 5.43529 4.99902 5.26953 4.99902H4.64453ZM13.8383 12.6803L13.107 11.9553C13.3408 11.5473 13.4343 11.074 13.3733 10.6078C13.3124 10.1416 13.1003 9.70818 12.7695 9.37402C12.4652 9.05882 12.0729 8.84258 11.6439 8.75349C11.2149 8.66439 10.769 8.70656 10.3643 8.87452C9.95961 9.04247 9.61488 9.32841 9.37501 9.69509C9.13515 10.0618 9.01127 10.4922 9.01953 10.9303C9.01738 11.3073 9.11382 11.6783 9.29929 12.0065C9.48476 12.3347 9.75282 12.6087 10.0769 12.8014C10.4009 12.9941 10.7697 13.0987 11.1467 13.1048C11.5236 13.111 11.8956 13.0185 12.2258 12.8365L12.9508 13.5678C13.0089 13.6264 13.078 13.6729 13.1542 13.7046C13.2303 13.7363 13.312 13.7526 13.3945 13.7526C13.477 13.7526 13.5587 13.7363 13.6349 13.7046C13.7111 13.6729 13.7802 13.6264 13.8383 13.5678C13.8969 13.5097 13.9434 13.4405 13.9751 13.3644C14.0068 13.2882 14.0232 13.2065 14.0232 13.124C14.0232 13.0415 14.0068 12.9598 13.9751 12.8837C13.9434 12.8075 13.8969 12.7384 13.8383 12.6803ZM11.857 11.5865C11.6785 11.7544 11.4427 11.8479 11.1977 11.8479C10.9526 11.8479 10.7168 11.7544 10.5383 11.5865C10.3662 11.4114 10.2697 11.1758 10.2695 10.9303C10.2682 10.807 10.2919 10.6847 10.3392 10.5709C10.3865 10.457 10.4563 10.3539 10.5445 10.2678C10.7112 10.102 10.9346 10.006 11.1695 9.99902C11.2959 9.99126 11.4225 10.0097 11.5414 10.0532C11.6603 10.0966 11.7689 10.1642 11.8605 10.2517C11.952 10.3391 12.0245 10.4445 12.0734 10.5613C12.1223 10.6781 12.1465 10.8037 12.1445 10.9303C12.1394 11.1785 12.036 11.4145 11.857 11.5865ZM8.39453 7.49902H4.64453C4.47877 7.49902 4.3198 7.56487 4.20259 7.68208C4.08538 7.79929 4.01953 7.95826 4.01953 8.12402C4.01953 8.28978 4.08538 8.44875 4.20259 8.56597C4.3198 8.68318 4.47877 8.74902 4.64453 8.74902H8.39453C8.56029 8.74902 8.71926 8.68318 8.83647 8.56597C8.95368 8.44875 9.01953 8.28978 9.01953 8.12402C9.01953 7.95826 8.95368 7.79929 8.83647 7.68208C8.71926 7.56487 8.56029 7.49902 8.39453 7.49902ZM7.14453 11.249C7.31029 11.249 7.46926 11.1832 7.58647 11.066C7.70368 10.9488 7.76953 10.7898 7.76953 10.624C7.76953 10.4583 7.70368 10.2993 7.58647 10.1821C7.46926 10.0649 7.31029 9.99902 7.14453 9.99902H4.64453C4.47877 9.99902 4.3198 10.0649 4.20259 10.1821C4.08538 10.2993 4.01953 10.4583 4.01953 10.624C4.01953 10.7898 4.08538 10.9488 4.20259 11.066C4.3198 11.1832 4.47877 11.249 4.64453 11.249H7.14453Z" fill="black"/>
</svg>
